<svg width="4078" height="234" xmlns="http://www.w3.org/2000/svg" xmlns:xlink="http://www.w3.org/1999/xlink" xml:space="preserve" overflow="hidden"><g transform="translate(-66 -749)"><path d="M496.401 800.536C502.788 800.536 508.959 801.156 514.914 802.395 520.869 803.634 526.689 805.576 532.375 808.219L525.717 824.297C520.605 822.385 515.627 820.802 510.781 819.546 505.936 818.29 500.932 817.662 495.769 817.662 487.258 817.662 479.963 819.458 473.882 823.052 467.802 826.645 463.129 831.718 459.862 838.271 456.595 844.824 454.962 852.655 454.962 861.764 454.962 870.711 456.33 878.461 459.066 885.015 461.802 891.57 466.053 896.657 471.819 900.278 477.585 903.899 485.067 905.71 494.267 905.71 498.999 905.71 503.044 905.448 506.4 904.926 509.757 904.404 512.39 903.894 514.3 903.397L514.3 873.57 488.627 873.57 488.627 856.208 533.639 856.208 533.639 916.031C526.684 918.395 519.98 920.107 513.528 921.166 507.076 922.226 499.76 922.756 491.582 922.756 479.357 922.756 469.038 920.308 460.625 915.412 452.212 910.516 445.823 903.503 441.459 894.374 437.094 885.246 434.912 874.323 434.912 861.607 434.912 849.362 437.325 838.648 442.149 829.466 446.974 820.284 453.994 813.167 463.208 808.115 472.422 803.063 483.487 800.536 496.401 800.536Z" stroke="#4385F4" stroke-width="9" stroke-linejoin="round" stroke-miterlimit="10" fill="#4385F4" fill-rule="evenodd"/><text fill="#000000" fill-opacity="0" font-family="Arial,Arial_MSFontService,sans-serif" font-size="122.219" x="434.912" y="907.478">G</text><path d="M544.064 867.438 587.337 867.438 587.337 884.406 544.064 884.406Z" stroke="#4385F4" stroke-width="9" stroke-linejoin="round" stroke-miterlimit="10" fill="#4385F4" fill-rule="evenodd"/><text fill="#000000" fill-opacity="0" font-family="Arial,Arial_MSFontService,sans-serif" font-size="16.968" x="544.064" y="882.285">-</text><path d="M599.871 802.309 625.977 802.309 659.314 893.976 693.497 802.309 719.451 802.309 719.451 920.983 700.508 920.983 700.508 850.275C700.508 846.783 700.561 843.138 700.667 839.342 700.72 837.443 700.783 835.593 700.856 833.791L701.088 828.865 666.8 920.983 650.649 920.983 617.369 829.275 617.584 833.746C617.665 835.663 617.742 837.688 617.812 839.82 617.954 844.084 618.024 847.885 618.024 851.223L618.024 920.983 599.871 920.983Z" stroke="#EB4F42" stroke-width="9" stroke-linejoin="round" stroke-miterlimit="10" fill="#EB4F42" fill-rule="evenodd"/><text fill="#000000" fill-opacity="0" font-family="Arial,Arial_MSFontService,sans-serif" font-size="118.674" x="599.871" y="906.149">M</text><path d="M781.576 824.622 781.318 825.686C780.633 828.059 779.92 830.424 779.178 832.779 778.435 835.135 777.865 836.907 777.466 838.096L765.361 869.459 797.842 869.459 785.896 838.185C785.575 837.184 784.984 835.346 784.124 832.673 783.263 830 782.48 827.567 781.774 825.375ZM772.201 802.309 791.053 802.309 835.428 920.983 815.627 920.983 802.831 886.743 759.898 886.743 747.259 920.983 727.617 920.983Z" stroke="#FBBC03" stroke-width="9" stroke-linejoin="round" stroke-miterlimit="10" fill="#FBBC03" fill-rule="evenodd"/><text fill="#000000" fill-opacity="0" font-family="Arial,Arial_MSFontService,sans-serif" font-size="118.674" x="727.617" y="906.149">A</text><path d="M862.284 819.118 862.284 904.015 875.522 904.015C889.97 904.015 900.751 900.433 907.867 893.27 914.983 886.106 918.541 875.354 918.541 861.014 918.541 851.403 917 843.518 913.919 837.358 910.838 831.198 906.322 826.618 900.371 823.618 894.42 820.618 887.085 819.118 878.366 819.118ZM842.787 802.309 879.63 802.309C891.685 802.309 902.143 804.524 911.006 808.953 919.868 813.383 926.721 819.936 931.564 828.613 936.407 837.291 938.829 847.933 938.829 860.541 938.829 873.808 936.359 884.933 931.418 893.914 926.478 902.895 919.325 909.652 909.958 914.184 900.59 918.717 889.296 920.983 876.075 920.983L842.787 920.983Z" stroke="#31A750" stroke-width="9" stroke-linejoin="round" stroke-miterlimit="10" fill="#31A750" fill-rule="evenodd"/><text fill="#000000" fill-opacity="0" font-family="Arial,Arial_MSFontService,sans-serif" font-size="118.674" x="842.787" y="906.149">D</text><path d="M962.817 900.6C965.825 900.6 968.376 901.446 970.471 903.138 972.566 904.83 973.613 907.717 973.613 911.799 973.613 915.773 972.566 918.674 970.471 920.5 968.376 922.326 965.825 923.239 962.817 923.239 959.863 923.239 957.352 922.326 955.284 920.5 953.216 918.674 952.183 915.773 952.183 911.799 952.183 907.717 953.216 904.83 955.284 903.138 957.352 901.446 959.863 900.6 962.817 900.6ZM962.817 830.266C965.825 830.266 968.376 831.111 970.471 832.803 972.566 834.495 973.613 837.409 973.613 841.545 973.613 845.519 972.566 848.393 970.471 850.165 968.376 851.938 965.825 852.824 962.817 852.824 959.863 852.824 957.352 851.938 955.284 850.165 953.216 848.393 952.183 845.519 952.183 841.545 952.183 837.409 953.216 834.495 955.284 832.803 957.352 831.111 959.863 830.266 962.817 830.266Z" stroke="#999999" stroke-width="7" stroke-linejoin="round" stroke-miterlimit="10" fill="#999999" fill-rule="evenodd"/><text fill="#000000" fill-opacity="0" font-family="Arial,Arial_MSFontService,sans-serif" font-size="92.9736" x="952.183" y="911.617">: </text><path d="M1046.38 817.053 1046.38 906.965 1061.61 906.965C1076.81 906.965 1088.2 903.151 1095.77 895.524 1103.34 887.897 1107.13 876.537 1107.13 861.445 1107.13 851.347 1105.49 843.022 1102.22 836.469 1098.94 829.916 1094.13 825.042 1087.79 821.846 1081.46 818.651 1073.69 817.053 1064.51 817.053ZM1029.87 803.195 1065.8 803.195C1077.83 803.195 1088.22 805.384 1096.98 809.761 1105.73 814.139 1112.5 820.611 1117.28 829.178 1122.06 837.745 1124.45 848.339 1124.45 860.961 1124.45 874.228 1122.01 885.306 1117.12 894.195 1112.23 903.084 1105.16 909.771 1095.89 914.256 1086.63 918.741 1075.39 920.983 1062.17 920.983L1029.87 920.983Z" stroke="#999999" stroke-width="7" stroke-linejoin="round" stroke-miterlimit="10" fill="#999999" fill-rule="evenodd"/><text fill="#000000" fill-opacity="0" font-family="Arial,Arial_MSFontService,sans-serif" font-size="117.788" x="1029.87" y="906.26">D</text><path d="M1333.97 877.88 1321.56 878.444C1311.3 878.82 1304.09 880.526 1299.93 883.56 1295.76 886.595 1293.68 890.825 1293.68 896.249 1293.68 900.976 1295.11 904.44 1297.95 906.642 1300.8 908.845 1304.56 909.946 1309.23 909.946 1316.43 909.946 1322.35 907.918 1327 903.863 1331.64 899.808 1333.97 893.806 1333.97 885.856ZM1191.97 877.88 1179.56 878.444C1169.3 878.82 1162.09 880.526 1157.93 883.56 1153.76 886.595 1151.68 890.825 1151.68 896.249 1151.68 900.976 1153.11 904.44 1155.95 906.642 1158.8 908.845 1162.56 909.946 1167.23 909.946 1174.43 909.946 1180.35 907.918 1185 903.863 1189.64 899.808 1191.97 893.806 1191.97 885.856ZM1317.29 830.668C1328.25 830.668 1336.44 833.099 1341.86 837.96 1347.29 842.82 1350 850.488 1350 860.961L1350 920.983 1338.4 920.983 1335.26 908.093 1334.61 908.093C1332.14 911.315 1329.56 914.001 1326.88 916.149 1324.19 918.298 1321.09 919.909 1317.57 920.983 1314.05 922.057 1309.77 922.595 1304.72 922.595 1299.35 922.595 1294.57 921.628 1290.38 919.694 1286.19 917.761 1282.9 914.847 1280.51 910.953 1278.12 907.059 1276.93 902.104 1276.93 896.088 1276.93 887.065 1280.39 880.217 1287.32 875.544 1294.25 870.871 1304.75 868.32 1318.82 867.89L1334.13 867.245 1334.13 862.25C1334.13 855.322 1332.58 850.434 1329.49 847.587 1326.41 844.741 1322.1 843.317 1316.56 843.317 1312 843.317 1307.62 843.975 1303.43 845.291 1299.24 846.607 1295.21 848.178 1291.35 850.004L1286.19 838.242C1290.38 836.093 1295.15 834.294 1300.49 832.844 1305.83 831.393 1311.43 830.668 1317.29 830.668ZM1175.29 830.668C1186.25 830.668 1194.44 833.099 1199.86 837.96 1205.29 842.82 1208 850.488 1208 860.961L1208 920.983 1196.4 920.983 1193.26 908.093 1192.61 908.093C1190.14 911.315 1187.56 914.001 1184.88 916.149 1182.19 918.298 1179.09 919.909 1175.57 920.983 1172.05 922.057 1167.77 922.595 1162.72 922.595 1157.35 922.595 1152.57 921.628 1148.38 919.694 1144.19 917.761 1140.9 914.847 1138.51 910.953 1136.12 907.059 1134.93 902.104 1134.93 896.088 1134.93 887.065 1138.39 880.217 1145.32 875.544 1152.25 870.871 1162.75 868.32 1176.82 867.89L1192.13 867.245 1192.13 862.25C1192.13 855.322 1190.58 850.434 1187.49 847.587 1184.41 844.741 1180.1 843.317 1174.56 843.317 1170 843.317 1165.62 843.975 1161.43 845.291 1157.24 846.607 1153.21 848.178 1149.35 850.004L1144.19 838.242C1148.38 836.093 1153.15 834.294 1158.49 832.844 1163.83 831.393 1169.43 830.668 1175.29 830.668ZM1236.02 812.057 1246.01 812.057 1246.01 832.199 1271.72 832.199 1271.72 844.687 1246.01 844.687 1246.01 894.557C1246.01 899.553 1247.21 903.286 1249.6 905.756 1251.99 908.227 1255.2 909.462 1259.23 909.462 1261.54 909.462 1263.87 909.261 1266.24 908.858 1268.6 908.455 1270.64 907.932 1272.36 907.287L1272.36 919.694C1270.53 920.5 1268.1 921.185 1265.07 921.749 1262.03 922.313 1258.93 922.595 1255.76 922.595 1250.93 922.595 1246.55 921.762 1242.63 920.097 1238.71 918.432 1235.58 915.585 1233.24 911.557 1230.91 907.529 1229.74 901.943 1229.74 894.799L1229.74 844.687 1217.41 844.687 1217.41 837.194 1230.3 831.232Z" stroke="#999999" stroke-width="7" stroke-linejoin="round" stroke-miterlimit="10" fill="#999999" fill-rule="evenodd"/><text fill="#000000" fill-opacity="0" font-family="Arial,Arial_MSFontService,sans-serif" font-size="110.537" x="1134.93" y="908.777">ata </text><path d="M1463.83 801.503C1470.28 801.503 1476.47 802.121 1482.4 803.356 1488.34 804.592 1493.8 806.31 1498.8 808.513L1492.84 822.451C1488.65 820.571 1484.01 818.973 1478.94 817.657 1473.86 816.341 1468.61 815.683 1463.19 815.683 1454.16 815.683 1446.42 817.59 1439.94 821.403 1433.47 825.217 1428.5 830.588 1425.04 837.516 1421.58 844.445 1419.84 852.663 1419.84 862.17 1419.84 871.462 1421.29 879.572 1424.19 886.501 1427.09 893.43 1431.63 898.828 1437.81 902.695 1443.99 906.562 1451.94 908.495 1461.66 908.495 1466.55 908.495 1470.72 908.227 1474.19 907.69 1477.65 907.153 1480.83 906.508 1483.73 905.756L1483.73 872.563 1457.55 872.563 1457.55 858.141 1500.09 858.141 1500.09 916.23C1493.91 918.325 1487.55 919.909 1480.99 920.983 1474.44 922.057 1467.08 922.595 1458.92 922.595 1446.78 922.595 1436.55 920.178 1428.22 915.344 1419.9 910.51 1413.57 903.581 1409.25 894.557 1404.93 885.534 1402.76 874.684 1402.76 862.009 1402.76 849.816 1405.15 839.182 1409.93 830.104 1414.71 821.027 1421.67 813.991 1430.8 808.996 1439.93 804.001 1450.94 801.503 1463.83 801.503Z" stroke="#747474" stroke-width="7" stroke-linejoin="round" stroke-miterlimit="10" fill="#747474" fill-rule="evenodd"/><text fill="#000000" fill-opacity="0" font-family="Arial,Arial_MSFontService,sans-serif" font-size="121.091" x="1402.76" y="907.458">G</text><path d="M1903.09 877.88 1890.68 878.444C1880.43 878.82 1873.21 880.526 1869.05 883.56 1864.89 886.595 1862.81 890.825 1862.81 896.249 1862.81 900.976 1864.23 904.44 1867.08 906.642 1869.92 908.845 1873.68 909.946 1878.36 909.946 1885.55 909.946 1891.48 907.918 1896.12 903.863 1900.77 899.808 1903.09 893.806 1903.09 885.856ZM2030.59 844.042C2022.1 844.042 2015.89 846.876 2011.94 852.542 2007.99 858.209 2006.02 866.171 2006.02 876.43 2006.02 883.251 2006.89 889.119 2008.63 894.034 2010.38 898.948 2013.07 902.722 2016.69 905.353 2020.32 907.985 2025 909.301 2030.75 909.301 2036.39 909.301 2041.04 907.985 2044.69 905.353 2048.34 902.722 2051.03 898.948 2052.74 894.034 2054.46 889.119 2055.32 883.251 2055.32 876.43 2055.32 869.662 2054.46 863.862 2052.74 859.028 2051.03 854.194 2048.35 850.488 2044.73 847.91 2041.1 845.331 2036.39 844.042 2030.59 844.042ZM1737.14 843.156C1730.59 843.156 1725.32 845.291 1721.35 849.561 1717.37 853.831 1715.04 859.941 1714.34 867.89L1758.01 867.89C1757.95 863.002 1757.17 858.705 1755.67 854.999 1754.17 851.293 1751.9 848.393 1748.86 846.298 1745.83 844.203 1741.92 843.156 1737.14 843.156ZM1554.14 843.156C1547.59 843.156 1542.32 845.291 1538.35 849.561 1534.37 853.831 1532.04 859.941 1531.34 867.89L1575.01 867.89C1574.95 863.002 1574.17 858.705 1572.67 854.999 1571.17 851.293 1568.9 848.393 1565.86 846.298 1562.83 844.203 1558.92 843.156 1554.14 843.156ZM1886.41 830.668C1897.37 830.668 1905.56 833.099 1910.99 837.96 1916.41 842.82 1919.12 850.488 1919.12 860.961L1919.12 920.983 1907.52 920.983 1904.38 908.093 1903.74 908.093C1901.26 911.315 1898.69 914.001 1896 916.149 1893.32 918.298 1890.21 919.909 1886.7 920.983 1883.18 922.057 1878.89 922.595 1873.85 922.595 1868.47 922.595 1863.69 921.628 1859.5 919.694 1855.32 917.761 1852.03 914.847 1849.64 910.953 1847.25 907.059 1846.05 902.104 1846.05 896.088 1846.05 887.065 1849.51 880.217 1856.44 875.544 1863.37 870.871 1873.87 868.32 1887.94 867.89L1903.25 867.245 1903.25 862.25C1903.25 855.322 1901.71 850.434 1898.62 847.587 1895.53 844.741 1891.22 843.317 1885.69 843.317 1881.12 843.317 1876.75 843.975 1872.56 845.291 1868.37 846.607 1864.34 848.178 1860.47 850.004L1855.32 838.242C1859.5 836.093 1864.27 834.294 1869.62 832.844 1874.96 831.393 1880.56 830.668 1886.41 830.668ZM2130.11 830.588C2131.73 830.588 2133.47 830.682 2135.35 830.87 2137.23 831.058 2138.84 831.286 2140.19 831.555L2138.49 846.62C2137.2 846.298 2135.71 846.03 2134.02 845.815 2132.33 845.6 2130.76 845.493 2129.31 845.493 2125.87 845.493 2122.6 846.137 2119.48 847.426 2116.36 848.715 2113.63 850.582 2111.26 853.026 2108.9 855.469 2107.05 858.45 2105.7 861.968 2104.36 865.486 2103.69 869.501 2103.69 874.013L2103.69 920.983 2087.41 920.983 2087.41 832.199 2100.47 832.199 2102.4 848.232 2103.13 848.232C2104.95 845.009 2107.17 842.055 2109.77 839.37 2112.38 836.684 2115.38 834.549 2118.8 832.964 2122.21 831.38 2125.98 830.588 2130.11 830.588ZM2030.91 830.588C2039.08 830.588 2046.25 832.387 2052.42 835.986 2058.6 839.584 2063.41 844.794 2066.84 851.616 2070.28 858.437 2072 866.708 2072 876.43 2072 883.735 2071.05 890.247 2069.14 895.967 2067.23 901.688 2064.47 906.522 2060.84 910.469 2057.22 914.417 2052.85 917.425 2047.75 919.493 2042.65 921.561 2036.87 922.595 2030.43 922.595 2024.41 922.595 2018.89 921.561 2013.87 919.493 2008.85 917.425 2004.51 914.417 2000.86 910.469 1997.21 906.522 1994.39 901.688 1992.4 895.967 1990.41 890.247 1989.42 883.735 1989.42 876.43 1989.42 866.708 1991.08 858.423 1994.41 851.575 1997.74 844.727 2002.51 839.517 2008.72 835.945 2014.92 832.374 2022.32 830.588 2030.91 830.588ZM1832.11 830.588C1833.73 830.588 1835.47 830.682 1837.35 830.87 1839.23 831.058 1840.84 831.286 1842.19 831.555L1840.49 846.62C1839.2 846.298 1837.71 846.03 1836.02 845.815 1834.33 845.6 1832.76 845.493 1831.31 845.493 1827.87 845.493 1824.6 846.137 1821.48 847.426 1818.36 848.715 1815.63 850.582 1813.26 853.026 1810.9 855.469 1809.05 858.45 1807.7 861.968 1806.36 865.486 1805.69 869.501 1805.69 874.013L1805.69 920.983 1789.41 920.983 1789.41 832.199 1802.47 832.199 1804.4 848.232 1805.13 848.232C1806.95 845.009 1809.17 842.055 1811.77 839.37 1814.38 836.684 1817.38 834.549 1820.8 832.964 1824.21 831.38 1827.98 830.588 1832.11 830.588ZM1737.22 830.588C1744.95 830.588 1751.59 832.239 1757.12 835.543 1762.65 838.846 1766.89 843.505 1769.85 849.521 1772.8 855.536 1774.28 862.626 1774.28 870.79L1774.28 879.975 1714.02 879.975C1714.18 889.482 1716.62 896.773 1721.35 901.849 1726.07 906.924 1732.71 909.462 1741.25 909.462 1746.89 909.462 1751.91 908.925 1756.31 907.851 1760.72 906.777 1765.28 905.192 1770.01 903.098L1770.01 916.713C1765.55 918.754 1761.08 920.245 1756.6 921.185 1752.11 922.125 1746.75 922.595 1740.52 922.595 1731.93 922.595 1724.4 920.876 1717.92 917.438 1711.45 914.001 1706.42 908.912 1702.82 902.171 1699.22 895.43 1697.42 887.119 1697.42 877.236 1697.42 867.46 1699.06 859.095 1702.33 852.139 1705.61 845.184 1710.23 839.853 1716.19 836.147 1722.15 832.441 1729.16 830.588 1737.22 830.588ZM1650.57 830.588C1660.82 830.588 1668.71 833.166 1674.21 838.322 1679.72 843.478 1682.47 851.75 1682.47 863.137L1682.47 920.983 1666.44 920.983 1666.44 865.312C1666.44 858.222 1664.88 852.891 1661.76 849.319 1658.65 845.748 1653.87 843.962 1647.42 843.962 1638.24 843.962 1631.81 846.674 1628.13 852.099 1624.45 857.524 1622.61 865.392 1622.61 875.705L1622.61 920.983 1606.41 920.983 1606.41 832.199 1619.22 832.199 1621.56 844.687 1622.45 844.687C1624.33 841.572 1626.72 838.967 1629.62 836.872 1632.52 834.777 1635.75 833.206 1639.33 832.159 1642.9 831.111 1646.64 830.588 1650.57 830.588ZM1554.22 830.588C1561.95 830.588 1568.59 832.239 1574.12 835.543 1579.65 838.846 1583.89 843.505 1586.85 849.521 1589.8 855.536 1591.28 862.626 1591.28 870.79L1591.28 879.975 1531.02 879.975C1531.18 889.482 1533.62 896.773 1538.35 901.849 1543.07 906.924 1549.71 909.462 1558.25 909.462 1563.89 909.462 1568.91 908.925 1573.31 907.851 1577.72 906.777 1582.28 905.192 1587.01 903.098L1587.01 916.713C1582.55 918.754 1578.08 920.245 1573.6 921.185 1569.11 922.125 1563.75 922.595 1557.52 922.595 1548.93 922.595 1541.4 920.876 1534.92 917.438 1528.45 914.001 1523.42 908.912 1519.82 902.171 1516.22 895.43 1514.42 887.119 1514.42 877.236 1514.42 867.46 1516.06 859.095 1519.33 852.139 1522.61 845.184 1527.23 839.853 1533.19 836.147 1539.15 832.441 1546.16 830.588 1554.22 830.588ZM1947.15 812.057 1957.14 812.057 1957.14 832.199 1982.84 832.199 1982.84 844.687 1957.14 844.687 1957.14 894.557C1957.14 899.553 1958.33 903.286 1960.72 905.756 1963.11 908.227 1966.32 909.462 1970.35 909.462 1972.66 909.462 1975 909.261 1977.36 908.858 1979.72 908.455 1981.77 907.932 1983.48 907.287L1983.48 919.694C1981.66 920.5 1979.23 921.185 1976.19 921.749 1973.16 922.313 1970.06 922.595 1966.89 922.595 1962.05 922.595 1957.68 921.762 1953.76 920.097 1949.83 918.432 1946.71 915.585 1944.37 911.557 1942.03 907.529 1940.86 901.943 1940.86 894.799L1940.86 844.687 1928.54 844.687 1928.54 837.194 1941.43 831.232Z" stroke="#999999" stroke-width="7" stroke-linejoin="round" stroke-miterlimit="10" fill="#999999" fill-rule="evenodd"/><text fill="#000000" fill-opacity="0" font-family="Arial,Arial_MSFontService,sans-serif" font-size="110.537" x="1514.42" y="908.777">enerator</text><path d="M2273.46 844.042C2264.98 844.042 2258.76 846.876 2254.81 852.542 2250.87 858.209 2248.89 866.171 2248.89 876.43 2248.89 883.251 2249.76 889.119 2251.51 894.034 2253.26 898.948 2255.94 902.722 2259.57 905.353 2263.19 907.985 2267.88 909.301 2273.63 909.301 2279.26 909.301 2283.91 907.985 2287.56 905.353 2291.22 902.722 2293.9 898.948 2295.62 894.034 2297.34 889.119 2298.2 883.251 2298.2 876.43 2298.2 869.662 2297.34 863.862 2295.62 859.028 2293.9 854.194 2291.23 850.488 2287.6 847.91 2283.98 845.331 2279.26 844.042 2273.46 844.042ZM2372.99 830.588C2374.6 830.588 2376.35 830.682 2378.23 830.87 2380.11 831.058 2381.72 831.286 2383.06 831.555L2381.37 846.62C2380.08 846.298 2378.59 846.03 2376.9 845.815 2375.21 845.6 2373.63 845.493 2372.18 845.493 2368.75 845.493 2365.47 846.137 2362.36 847.426 2359.24 848.715 2356.5 850.582 2354.14 853.026 2351.77 855.469 2349.92 858.45 2348.58 861.968 2347.24 865.486 2346.56 869.501 2346.56 874.013L2346.56 920.983 2330.29 920.983 2330.29 832.199 2343.34 832.199 2345.28 848.232 2346 848.232C2347.83 845.009 2350.04 842.055 2352.65 839.37 2355.25 836.684 2358.26 834.549 2361.67 832.964 2365.08 831.38 2368.85 830.588 2372.99 830.588ZM2273.79 830.588C2281.95 830.588 2289.12 832.387 2295.3 835.986 2301.47 839.584 2306.28 844.794 2309.72 851.616 2313.16 858.437 2314.88 866.708 2314.88 876.43 2314.88 883.735 2313.92 890.247 2312.02 895.967 2310.11 901.688 2307.34 906.522 2303.72 910.469 2300.09 914.417 2295.73 917.425 2290.62 919.493 2285.52 921.561 2279.75 922.595 2273.3 922.595 2267.29 922.595 2261.77 921.561 2256.75 919.493 2251.72 917.425 2247.39 914.417 2243.74 910.469 2240.08 906.522 2237.26 901.688 2235.28 895.967 2233.29 890.247 2232.29 883.735 2232.29 876.43 2232.29 866.708 2233.96 858.423 2237.29 851.575 2240.62 844.727 2245.39 839.517 2251.59 835.945 2257.79 832.374 2265.19 830.588 2273.79 830.588ZM2219.4 794.736C2223.11 794.736 2226.51 795.058 2229.59 795.703 2232.68 796.347 2235.35 797.072 2237.61 797.878L2233.42 810.285C2231.59 809.694 2229.55 809.144 2227.3 808.633 2225.04 808.123 2222.65 807.868 2220.13 807.868 2215.45 807.868 2212 809.372 2209.77 812.38 2207.55 815.388 2206.43 819.926 2206.43 825.995L2206.43 832.199 2228.26 832.199 2228.26 844.687 2206.43 844.687 2206.43 920.983 2190.24 920.983 2190.24 844.687 2175.17 844.687 2175.17 836.872 2190.24 831.957 2190.24 825.834C2190.24 818.369 2191.39 812.366 2193.7 807.828 2196.01 803.289 2199.33 799.973 2203.65 797.878 2207.98 795.783 2213.23 794.736 2219.4 794.736Z" stroke="#999999" stroke-width="7" stroke-linejoin="round" stroke-miterlimit="10" fill="#999999" fill-rule="evenodd"/><text fill="#000000" fill-opacity="0" font-family="Arial,Arial_MSFontService,sans-serif" font-size="127.859" x="2175.17" y="906.612">for</text><path d="M2431.22 803.195 2454.99 803.195 2489.87 899.15 2490.44 899.15 2526.21 803.195 2549.81 803.195 2549.81 920.983 2533.86 920.983 2533.86 850.488C2533.86 846.943 2533.92 843.25 2534.02 839.41 2534.13 835.569 2534.28 831.917 2534.47 828.453 2534.65 824.988 2534.83 822.128 2534.99 819.872L2534.27 819.872 2496.64 920.983 2482.54 920.983 2445.8 819.711 2445.16 819.711C2445.32 821.913 2445.49 824.747 2445.68 828.211 2445.87 831.675 2446.03 835.435 2446.17 839.49 2446.3 843.546 2446.37 847.534 2446.37 851.454L2446.37 920.983 2431.22 920.983Z" stroke="#747474" stroke-width="7" stroke-linejoin="round" stroke-miterlimit="10" fill="#747474" fill-rule="evenodd"/><text fill="#000000" fill-opacity="0" font-family="Arial,Arial_MSFontService,sans-serif" font-size="117.788" x="2431.22" y="906.26">M</text><path d="M2790.11 877.88 2777.7 878.444C2767.45 878.82 2760.24 880.526 2756.07 883.56 2751.91 886.595 2749.83 890.825 2749.83 896.249 2749.83 900.976 2751.25 904.44 2754.1 906.642 2756.95 908.845 2760.71 909.946 2765.38 909.946 2772.58 909.946 2778.5 907.918 2783.14 903.863 2787.79 899.808 2790.11 893.806 2790.11 885.856ZM2646.44 832.199 2662.63 832.199 2662.63 920.983 2646.44 920.983ZM2572.44 832.199 2588.63 832.199 2588.63 920.983 2572.44 920.983ZM2773.43 830.668C2784.39 830.668 2792.58 833.099 2798.01 837.96 2803.43 842.82 2806.14 850.488 2806.14 860.961L2806.14 920.983 2794.54 920.983 2791.4 908.093 2790.76 908.093C2788.29 911.315 2785.71 914.001 2783.02 916.149 2780.34 918.298 2777.23 919.909 2773.72 920.983 2770.2 922.057 2765.92 922.595 2760.87 922.595 2755.5 922.595 2750.71 921.628 2746.53 919.694 2742.34 917.761 2739.05 914.847 2736.66 910.953 2734.27 907.059 2733.07 902.104 2733.07 896.088 2733.07 887.065 2736.54 880.217 2743.46 875.544 2750.39 870.871 2760.89 868.32 2774.97 867.89L2790.27 867.245 2790.27 862.25C2790.27 855.322 2788.73 850.434 2785.64 847.587 2782.55 844.741 2778.24 843.317 2772.71 843.317 2768.14 843.317 2763.77 843.975 2759.58 845.291 2755.39 846.607 2751.36 848.178 2747.49 850.004L2742.34 838.242C2746.53 836.093 2751.29 834.294 2756.64 832.844 2761.98 831.393 2767.58 830.668 2773.43 830.668ZM2869.14 830.588C2870.75 830.588 2872.49 830.682 2874.37 830.87 2876.25 831.058 2877.86 831.286 2879.21 831.555L2879.13 832.199 2892.3 832.199 2911.16 883.359C2912.12 885.991 2913.02 888.555 2913.85 891.053 2914.69 893.55 2915.41 895.967 2916.03 898.304 2916.65 900.64 2917.14 902.936 2917.52 905.192L2918.08 905.192C2918.73 902.453 2919.64 899.123 2920.82 895.202 2922 891.281 2923.29 887.307 2924.69 883.278L2942.74 832.199 2960.14 832.199 2921.79 933.552C2919.7 939.191 2917.16 944.039 2914.18 948.094 2911.2 952.149 2907.66 955.264 2903.58 957.44 2899.5 959.615 2894.67 960.703 2889.08 960.703 2886.5 960.703 2884.23 960.555 2882.27 960.259 2880.31 959.964 2878.63 959.628 2877.24 959.252L2877.24 946.362C2878.42 946.63 2879.86 946.872 2881.55 947.087 2883.24 947.302 2885 947.409 2886.82 947.409 2890.21 947.409 2893.12 946.751 2895.57 945.435 2898.01 944.119 2900.1 942.253 2901.85 939.836 2903.6 937.419 2905.06 934.599 2906.24 931.376L2910.27 920.903 2878.19 840.627 2877.51 846.62C2876.23 846.298 2874.74 846.03 2873.04 845.815 2871.35 845.6 2869.78 845.493 2868.33 845.493 2864.89 845.493 2861.62 846.137 2858.5 847.426 2855.39 848.715 2852.65 850.582 2850.28 853.026 2847.92 855.469 2846.07 858.45 2844.72 861.968 2843.38 865.486 2842.71 869.501 2842.71 874.013L2842.71 920.983 2826.44 920.983 2826.44 832.199 2839.49 832.199 2841.42 848.232 2842.15 848.232C2843.97 845.009 2846.19 842.055 2848.79 839.37 2851.4 836.684 2854.41 834.549 2857.82 832.964 2861.23 831.38 2865 830.588 2869.14 830.588ZM2692.17 812.057 2702.16 812.057 2702.16 832.199 2727.86 832.199 2727.86 844.687 2702.16 844.687 2702.16 894.557C2702.16 899.553 2703.36 903.286 2705.75 905.756 2708.14 908.227 2711.34 909.462 2715.37 909.462 2717.68 909.462 2720.02 909.261 2722.38 908.858 2724.75 908.455 2726.79 907.932 2728.51 907.287L2728.51 919.694C2726.68 920.5 2724.25 921.185 2721.21 921.749 2718.18 922.313 2715.08 922.595 2711.91 922.595 2707.07 922.595 2702.7 921.762 2698.78 920.097 2694.86 918.432 2691.73 915.585 2689.39 911.557 2687.05 907.529 2685.89 901.943 2685.89 894.799L2685.89 844.687 2673.56 844.687 2673.56 837.194 2686.45 831.232ZM2654.65 798.603C2657.23 798.603 2659.45 799.355 2661.3 800.859 2663.15 802.363 2664.08 804.807 2664.08 808.19 2664.08 811.574 2663.15 814.031 2661.3 815.562 2659.45 817.093 2657.23 817.858 2654.65 817.858 2652.02 817.858 2649.81 817.093 2648.01 815.562 2646.21 814.031 2645.31 811.574 2645.31 808.19 2645.31 804.807 2646.21 802.363 2648.01 800.859 2649.81 799.355 2652.02 798.603 2654.65 798.603ZM2580.65 798.603C2583.23 798.603 2585.45 799.355 2587.3 800.859 2589.15 802.363 2590.08 804.807 2590.08 808.19 2590.08 811.574 2589.15 814.031 2587.3 815.562 2585.45 817.093 2583.23 817.858 2580.65 817.858 2578.02 817.858 2575.81 817.093 2574.01 815.562 2572.21 814.031 2571.31 811.574 2571.31 808.19 2571.31 804.807 2572.21 802.363 2574.01 800.859 2575.81 799.355 2578.02 798.603 2580.65 798.603ZM2609.44 795.622 2625.71 795.622 2625.71 920.983 2609.44 920.983Z" stroke="#999999" stroke-width="7" stroke-linejoin="round" stroke-miterlimit="10" fill="#999999" fill-rule="evenodd"/><text fill="#000000" fill-opacity="0" font-family="Arial,Arial_MSFontService,sans-serif" font-size="165.081" x="2571.31" y="940.067">ilitary</text><path d="M3042.75 817.939C3042.21 820.141 3041.59 822.464 3040.89 824.908 3040.2 827.352 3039.51 829.634 3038.84 831.756 3038.17 833.878 3037.62 835.583 3037.19 836.872L3024.62 871.596 3061.12 871.596 3048.71 836.872C3048.33 835.69 3047.75 833.918 3046.98 831.555 3046.2 829.191 3045.42 826.747 3044.64 824.223 3043.86 821.699 3043.23 819.604 3042.75 817.939ZM3034.45 802.712 3051.37 802.712 3096.08 920.983 3078.76 920.983 3065.71 885.937 3019.54 885.937 3006.65 920.983 2989.49 920.983Z" stroke="#747474" stroke-width="7" stroke-linejoin="round" stroke-miterlimit="10" fill="#747474" fill-rule="evenodd"/><text fill="#000000" fill-opacity="0" font-family="Arial,Arial_MSFontService,sans-serif" font-size="118.271" x="2989.49" y="906.199">A</text><path d="M3283.68 843.156C3277.13 843.156 3271.86 845.291 3267.89 849.561 3263.91 853.831 3261.58 859.941 3260.88 867.89L3304.55 867.89C3304.49 863.002 3303.71 858.705 3302.21 854.999 3300.71 851.293 3298.44 848.393 3295.4 846.298 3292.37 844.203 3288.46 843.156 3283.68 843.156ZM3283.76 830.588C3291.5 830.588 3298.13 832.239 3303.66 835.543 3309.19 838.846 3313.44 843.505 3316.39 849.521 3319.34 855.536 3320.82 862.626 3320.82 870.79L3320.82 879.975 3260.56 879.975C3260.72 889.482 3263.16 896.773 3267.89 901.849 3272.62 906.924 3279.25 909.462 3287.79 909.462 3293.43 909.462 3298.45 908.925 3302.86 907.851 3307.26 906.777 3311.82 905.192 3316.55 903.098L3316.55 916.713C3312.09 918.754 3307.62 920.245 3303.14 921.185 3298.65 922.125 3293.29 922.595 3287.06 922.595 3278.47 922.595 3270.94 920.876 3264.47 917.438 3257.99 914.001 3252.96 908.912 3249.36 902.171 3245.76 895.43 3243.96 887.119 3243.96 877.236 3243.96 867.46 3245.6 859.095 3248.88 852.139 3252.15 845.184 3256.77 839.853 3262.73 836.147 3268.7 832.441 3275.7 830.588 3283.76 830.588ZM3203.99 830.588C3209.36 830.588 3214.43 831.125 3219.18 832.199 3223.93 833.273 3228.49 834.777 3232.84 836.711L3227.6 849.199C3223.73 847.534 3219.76 846.151 3215.68 845.049 3211.59 843.948 3207.43 843.398 3203.19 843.398 3197.66 843.398 3193.43 844.284 3190.5 846.057 3187.57 847.829 3186.11 850.273 3186.11 853.388 3186.11 855.805 3186.79 857.819 3188.16 859.431 3189.53 861.042 3191.83 862.613 3195.05 864.144 3198.27 865.674 3202.62 867.487 3208.1 869.582 3213.53 871.623 3218.21 873.745 3222.16 875.947 3226.11 878.149 3229.16 880.834 3231.31 884.003 3233.45 887.172 3234.53 891.227 3234.53 896.169 3234.53 901.916 3233.12 906.763 3230.3 910.711 3227.48 914.659 3223.38 917.626 3218.01 919.614 3212.64 921.601 3206.2 922.595 3198.68 922.595 3192.45 922.595 3187.07 922.125 3182.56 921.185 3178.05 920.245 3173.97 918.889 3170.32 917.116L3170.32 902.775C3174.24 904.655 3178.78 906.32 3183.93 907.77 3189.09 909.221 3194.14 909.946 3199.08 909.946 3206.01 909.946 3211.02 908.845 3214.1 906.642 3217.19 904.44 3218.74 901.459 3218.74 897.7 3218.74 895.497 3218.12 893.55 3216.88 891.859 3215.65 890.167 3213.49 888.475 3210.4 886.783 3207.31 885.091 3202.89 883.144 3197.15 880.942 3191.51 878.74 3186.69 876.537 3182.68 874.335 3178.68 872.133 3175.63 869.474 3173.54 866.359 3171.44 863.244 3170.4 859.216 3170.4 854.274 3170.4 846.594 3173.47 840.726 3179.62 836.671 3185.77 832.615 3193.9 830.588 3203.99 830.588ZM3130.99 830.588C3136.36 830.588 3141.43 831.125 3146.18 832.199 3150.93 833.273 3155.49 834.777 3159.84 836.711L3154.6 849.199C3150.73 847.534 3146.76 846.151 3142.68 845.049 3138.59 843.948 3134.43 843.398 3130.19 843.398 3124.66 843.398 3120.43 844.284 3117.5 846.057 3114.57 847.829 3113.11 850.273 3113.11 853.388 3113.11 855.805 3113.79 857.819 3115.16 859.431 3116.53 861.042 3118.83 862.613 3122.05 864.144 3125.27 865.674 3129.62 867.487 3135.1 869.582 3140.53 871.623 3145.21 873.745 3149.16 875.947 3153.11 878.149 3156.16 880.834 3158.31 884.003 3160.45 887.172 3161.53 891.227 3161.53 896.169 3161.53 901.916 3160.12 906.763 3157.3 910.711 3154.48 914.659 3150.38 917.626 3145.01 919.614 3139.64 921.601 3133.2 922.595 3125.68 922.595 3119.45 922.595 3114.07 922.125 3109.56 921.185 3105.05 920.245 3100.97 918.889 3097.32 917.116L3097.32 902.775C3101.24 904.655 3105.78 906.32 3110.93 907.77 3116.09 909.221 3121.14 909.946 3126.08 909.946 3133.01 909.946 3138.02 908.845 3141.1 906.642 3144.19 904.44 3145.74 901.459 3145.74 897.7 3145.74 895.497 3145.12 893.55 3143.88 891.859 3142.65 890.167 3140.49 888.475 3137.4 886.783 3134.31 885.091 3129.89 883.144 3124.15 880.942 3118.51 878.74 3113.69 876.537 3109.68 874.335 3105.68 872.133 3102.63 869.474 3100.54 866.359 3098.44 863.244 3097.4 859.216 3097.4 854.274 3097.4 846.594 3100.47 840.726 3106.62 836.671 3112.77 832.615 3120.9 830.588 3130.99 830.588ZM3343.69 812.057 3353.68 812.057 3353.68 832.199 3379.38 832.199 3379.38 844.687 3353.68 844.687 3353.68 894.557C3353.68 899.553 3354.88 903.286 3357.27 905.756 3359.66 908.227 3362.87 909.462 3366.89 909.462 3369.2 909.462 3371.54 909.261 3373.9 908.858 3376.27 908.455 3378.31 907.932 3380.03 907.287L3380.03 919.694C3378.2 920.5 3375.77 921.185 3372.73 921.749 3369.7 922.313 3366.6 922.595 3363.43 922.595 3358.6 922.595 3354.22 921.762 3350.3 920.097 3346.38 918.432 3343.25 915.585 3340.91 911.557 3338.57 907.529 3337.41 901.943 3337.41 894.799L3337.41 844.687 3325.08 844.687 3325.08 837.194 3337.97 831.232Z" stroke="#999999" stroke-width="7" stroke-linejoin="round" stroke-miterlimit="10" fill="#999999" fill-rule="evenodd"/><text fill="#000000" fill-opacity="0" font-family="Arial,Arial_MSFontService,sans-serif" font-size="110.537" x="3097.32" y="908.777">sset</text><path d="M3445.18 817.053 3445.18 906.965 3460.41 906.965C3475.61 906.965 3487 903.151 3494.57 895.524 3502.15 887.897 3505.93 876.537 3505.93 861.445 3505.93 851.347 3504.29 843.022 3501.02 836.469 3497.74 829.916 3492.93 825.042 3486.6 821.846 3480.26 818.651 3472.5 817.053 3463.31 817.053ZM3428.67 803.195 3464.6 803.195C3476.63 803.195 3487.03 805.384 3495.78 809.761 3504.54 814.139 3511.3 820.611 3516.08 829.178 3520.86 837.745 3523.25 848.339 3523.25 860.961 3523.25 874.228 3520.81 885.306 3515.92 894.195 3511.03 903.084 3503.96 909.771 3494.69 914.256 3485.43 918.741 3474.19 920.983 3460.98 920.983L3428.67 920.983Z" stroke="#747474" stroke-width="7" stroke-linejoin="round" stroke-miterlimit="10" fill="#747474" fill-rule="evenodd"/><text fill="#000000" fill-opacity="0" font-family="Arial,Arial_MSFontService,sans-serif" font-size="117.788" x="3428.67" y="906.26">D</text><path d="M3574.82 843.156C3568.26 843.156 3563 845.291 3559.02 849.561 3555.05 853.831 3552.71 859.941 3552.02 867.89L3595.68 867.89C3595.63 863.002 3594.85 858.705 3593.35 854.999 3591.84 851.293 3589.57 848.393 3586.54 846.298 3583.5 844.203 3579.6 843.156 3574.82 843.156ZM3574.9 830.588C3582.63 830.588 3589.26 832.239 3594.8 835.543 3600.33 838.846 3604.57 843.505 3607.53 849.521 3610.48 855.536 3611.96 862.626 3611.96 870.79L3611.96 879.975 3551.69 879.975C3551.85 889.482 3554.3 896.773 3559.02 901.849 3563.75 906.924 3570.38 909.462 3578.92 909.462 3584.56 909.462 3589.59 908.925 3593.99 907.851 3598.4 906.777 3602.96 905.192 3607.69 903.098L3607.69 916.713C3603.23 918.754 3598.76 920.245 3594.27 921.185 3589.79 922.125 3584.43 922.595 3578.2 922.595 3569.61 922.595 3562.07 920.876 3555.6 917.438 3549.13 914.001 3544.09 908.912 3540.49 902.171 3536.9 895.43 3535.1 887.119 3535.1 877.236 3535.1 867.46 3536.73 859.095 3540.01 852.139 3543.29 845.184 3547.91 839.853 3553.87 836.147 3559.83 832.441 3566.84 830.588 3574.9 830.588Z" stroke="#999999" stroke-width="7" stroke-linejoin="round" stroke-miterlimit="10" fill="#999999" fill-rule="evenodd"/><text fill="#000000" fill-opacity="0" font-family="Arial,Arial_MSFontService,sans-serif" font-size="92.0068" x="3535.1" y="911.094">e</text><path d="M3634.91 812.057 3644.9 812.057 3644.9 832.199 3670.6 832.199 3670.6 844.687 3644.9 844.687 3644.9 894.557C3644.9 899.553 3646.09 903.286 3648.48 905.756 3650.88 908.227 3654.08 909.462 3658.11 909.462 3660.42 909.462 3662.76 909.261 3665.12 908.858 3667.49 908.455 3669.53 907.932 3671.24 907.287L3671.24 919.694C3669.42 920.5 3666.99 921.185 3663.95 921.749 3660.92 922.313 3657.82 922.595 3654.65 922.595 3649.81 922.595 3645.44 921.762 3641.52 920.097 3637.59 918.432 3634.47 915.585 3632.13 911.557 3629.79 907.529 3628.63 901.943 3628.63 894.799L3628.63 844.687 3616.3 844.687 3616.3 837.194 3629.19 831.232Z" stroke="#999999" stroke-width="7" stroke-linejoin="round" stroke-miterlimit="10" fill="#999999" fill-rule="evenodd"/><text fill="#000000" fill-opacity="0" font-family="Arial,Arial_MSFontService,sans-serif" font-size="110.537" x="3616.3" y="908.777">t</text><path d="M3971.35 844.042C3962.86 844.042 3956.65 846.876 3952.7 852.542 3948.75 858.209 3946.78 866.171 3946.78 876.43 3946.78 883.251 3947.65 889.119 3949.4 894.034 3951.14 898.948 3953.83 902.722 3957.45 905.353 3961.08 907.985 3965.76 909.301 3971.51 909.301 3977.15 909.301 3981.8 907.985 3985.45 905.353 3989.1 902.722 3991.79 898.948 3993.51 894.034 3995.22 889.119 3996.08 883.251 3996.08 876.43 3996.08 869.662 3995.22 863.862 3993.51 859.028 3991.79 854.194 3989.11 850.488 3985.49 847.91 3981.86 845.331 3977.15 844.042 3971.35 844.042ZM3716.9 843.156C3710.35 843.156 3705.08 845.291 3701.11 849.561 3697.13 853.831 3694.8 859.941 3694.1 867.89L3737.77 867.89C3737.71 863.002 3736.93 858.705 3735.43 854.999 3733.93 851.293 3731.66 848.393 3728.62 846.298 3725.59 844.203 3721.68 843.156 3716.9 843.156ZM3897.18 832.199 3913.37 832.199 3913.37 920.983 3897.18 920.983ZM4072.33 830.588C4082.58 830.588 4090.47 833.166 4095.97 838.322 4101.48 843.478 4104.23 851.75 4104.23 863.137L4104.23 920.983 4088.2 920.983 4088.2 865.312C4088.2 858.222 4086.64 852.891 4083.52 849.319 4080.41 845.748 4075.63 843.962 4069.18 843.962 4060 843.962 4053.57 846.674 4049.89 852.099 4046.21 857.524 4044.37 865.392 4044.37 875.705L4044.37 920.983 4028.18 920.983 4028.18 832.199 4040.99 832.199 4043.32 844.687 4044.21 844.687C4046.09 841.572 4048.48 838.967 4051.38 836.872 4054.28 834.777 4057.51 833.206 4061.09 832.159 4064.66 831.111 4068.4 830.588 4072.33 830.588ZM3971.67 830.588C3979.84 830.588 3987.01 832.387 3993.18 835.986 3999.36 839.584 4004.17 844.794 4007.6 851.616 4011.04 858.437 4012.76 866.708 4012.76 876.43 4012.76 883.735 4011.81 890.247 4009.9 895.967 4007.99 901.688 4005.23 906.522 4001.6 910.469 3997.98 914.417 3993.61 917.425 3988.51 919.493 3983.41 921.561 3977.63 922.595 3971.19 922.595 3965.17 922.595 3959.65 921.561 3954.63 919.493 3949.61 917.425 3945.27 914.417 3941.62 910.469 3937.97 906.522 3935.15 901.688 3933.16 895.967 3931.17 890.247 3930.18 883.735 3930.18 876.43 3930.18 866.708 3931.84 858.423 3935.18 851.575 3938.51 844.727 3943.27 839.517 3949.48 835.945 3955.68 832.374 3963.08 830.588 3971.67 830.588ZM3806.4 830.588C3811.23 830.588 3815.76 831.071 3819.97 832.038 3824.19 833.005 3827.72 834.213 3830.57 835.663L3825.73 848.796C3822.72 847.614 3819.49 846.567 3816.02 845.654 3812.56 844.741 3809.27 844.284 3806.16 844.284 3800.46 844.284 3795.75 845.533 3792.02 848.03 3788.28 850.528 3785.48 854.194 3783.6 859.028 3781.72 863.862 3780.78 869.824 3780.78 876.913 3780.78 883.788 3781.7 889.603 3783.56 894.356 3785.41 899.109 3788.15 902.722 3791.77 905.192 3795.4 907.663 3799.92 908.898 3805.35 908.898 3810.13 908.898 3814.43 908.361 3818.24 907.287 3822.05 906.213 3825.57 904.843 3828.79 903.178L3828.79 917.438C3825.68 919.157 3822.24 920.446 3818.48 921.306 3814.72 922.165 3810.18 922.595 3804.87 922.595 3796.7 922.595 3789.56 920.956 3783.44 917.68 3777.31 914.404 3772.57 909.395 3769.22 902.654 3765.86 895.914 3764.18 887.387 3764.18 877.075 3764.18 866.332 3765.98 857.537 3769.58 850.689 3773.18 843.841 3778.16 838.779 3784.52 835.502 3790.89 832.226 3798.18 830.588 3806.4 830.588ZM3716.98 830.588C3724.71 830.588 3731.35 832.239 3736.88 835.543 3742.41 838.846 3746.66 843.505 3749.61 849.521 3752.56 855.536 3754.04 862.626 3754.04 870.79L3754.04 879.975 3693.78 879.975C3693.94 889.482 3696.38 896.773 3701.11 901.849 3705.83 906.924 3712.47 909.462 3721.01 909.462 3726.65 909.462 3731.67 908.925 3736.07 907.851 3740.48 906.777 3745.04 905.192 3749.77 903.098L3749.77 916.713C3745.31 918.754 3740.84 920.245 3736.36 921.185 3731.87 922.125 3726.51 922.595 3720.28 922.595 3711.69 922.595 3704.16 920.876 3697.68 917.438 3691.21 914.001 3686.18 908.912 3682.58 902.171 3678.98 895.43 3677.18 887.119 3677.18 877.236 3677.18 867.46 3678.82 859.095 3682.09 852.139 3685.37 845.184 3689.99 839.853 3695.95 836.147 3701.91 832.441 3708.92 830.588 3716.98 830.588ZM3849.91 812.057 3859.9 812.057 3859.9 832.199 3885.6 832.199 3885.6 844.687 3859.9 844.687 3859.9 894.557C3859.9 899.553 3861.09 903.286 3863.48 905.756 3865.88 908.227 3869.08 909.462 3873.11 909.462 3875.42 909.462 3877.76 909.261 3880.12 908.858 3882.49 908.455 3884.53 907.932 3886.24 907.287L3886.24 919.694C3884.42 920.5 3881.99 921.185 3878.95 921.749 3875.92 922.313 3872.82 922.595 3869.65 922.595 3864.81 922.595 3860.44 921.762 3856.52 920.097 3852.59 918.432 3849.47 915.585 3847.13 911.557 3844.79 907.529 3843.63 901.943 3843.63 894.799L3843.63 844.687 3831.3 844.687 3831.3 837.194 3844.19 831.232ZM3905.39 798.603C3907.97 798.603 3910.19 799.355 3912.04 800.859 3913.89 802.363 3914.82 804.807 3914.82 808.19 3914.82 811.574 3913.89 814.031 3912.04 815.562 3910.19 817.093 3907.97 817.858 3905.39 817.858 3902.76 817.858 3900.55 817.093 3898.75 815.562 3896.95 814.031 3896.05 811.574 3896.05 808.19 3896.05 804.807 3896.95 802.363 3898.75 800.859 3900.55 799.355 3902.76 798.603 3905.39 798.603Z" stroke="#999999" stroke-width="7" stroke-linejoin="round" stroke-miterlimit="10" fill="#999999" fill-rule="evenodd"/><text fill="#000000" fill-opacity="0" font-family="Arial,Arial_MSFontService,sans-serif" font-size="123.992" x="3677.18" y="907.096">ection</text><path d="M322.896 879.265C323.357 876.239 322.329 872.788 319.027 868.89 313.343 862.179 303.773 858.285 296.516 853.928 261.659 833.003 226.831 812.019 191.961 791.12 188.372 788.969 184.221 786.133 180.032 786.005 175.423 785.864 171.126 788.881 167.752 791.927 164.923 794.481 163.375 798.169 164.239 802.177 164.724 804.422 165.774 806.474 166.835 808.478 171.001 816.349 175.536 824.01 180.196 831.551 181.184 833.149 182.197 834.76 183.539 836.024 184.692 837.111 186.052 837.907 187.4 838.693 189.352 840.691 193.025 841.976 195.406 843.366 198.456 845.146 201.505 846.925 204.557 848.705 219.492 857.421 234.363 866.263 249.234 875.109 256.672 879.534 264.107 883.96 271.552 888.371 276.764 891.46 284.151 897.871 290.218 897.998 292.031 898.036 293.795 897.447 295.523 896.863 300.038 895.338 304.708 894.264 309.087 892.3 315.465 889.442 322 885.156 322.896 879.265Z" fill="#1A1C1E" fill-rule="evenodd"/><path d="M182.609 789.683C184.459 788.613 187.019 788.764 189.849 790.391 195.485 793.632 200.019 801.479 200 807.93 199.991 811.125 198.858 813.379 197.028 814.438L187.419 820C189.248 818.941 190.381 816.688 190.39 813.493 190.409 807.041 185.876 799.195 180.24 795.954 177.41 794.326 174.849 794.176 173 795.246L182.609 789.683Z" fill="#424633" fill-rule="evenodd"/><path d="M181.032 796.385C175.498 793.159 171.018 795.762 171 802.183 170.982 808.579 175.433 816.387 180.968 819.614 186.502 822.84 190.982 820.238 191 813.842 191.018 807.42 186.567 799.611 181.032 796.385Z" fill="#5B6047" fill-rule="evenodd"/><path d="M189.904 816.368C189.946 816.249 189.958 816.116 190 816 189.644 816.3 189.37 816.733 189 817L189.904 816.368Z" fill="#4F533D" fill-rule="evenodd"/><path d="M188.985 813.037C188.978 812.431 188.931 811.814 188.836 811.187 188.748 810.611 188.604 810.031 188.448 809.448 187.591 806.241 185.762 803.034 183.429 800.654 182.976 800.191 182.512 799.747 182.025 799.354 181.494 798.926 180.946 798.544 180.385 798.215 180.367 798.204 180.348 798.188 180.33 798.176 178.44 797.085 176.702 796.789 175.271 797.14 174.484 798.152 174.006 799.584 174 801.428 173.985 806.748 177.725 813.23 182.353 815.903 184.78 817.305 186.914 817.291 188.447 816.273 188.781 815.407 188.997 814.405 189 813.216 189 813.158 188.985 813.097 188.985 813.037Z" fill="#4F533D" fill-rule="evenodd"/><path d="M184.802 818.967C185.097 818.96 185.403 818.977 185.677 818.923 185.874 818.883 186.043 818.786 186.229 818.722 186.484 818.636 186.751 818.572 186.982 818.443 187.839 817.959 188.499 817.155 188.945 816.109L188.869 816.152C188.9 816.134 188.923 816.104 188.953 816.084 188.971 816.039 188.982 815.986 189 815.941 187.455 816.949 185.302 816.962 182.854 815.575 178.187 812.928 174.414 806.512 174.429 801.245 174.435 799.42 174.918 798.003 175.711 797 175.042 797.16 174.461 797.484 173.949 797.919 173.804 798.042 173.637 798.133 173.508 798.277 173.308 798.497 173.157 798.781 172.994 799.05 172.899 799.206 172.779 799.329 172.698 799.499 172.541 799.827 172.441 800.217 172.336 800.601 172.291 800.763 172.219 800.896 172.184 801.067 172.066 801.645 172.002 802.277 172 802.96 171.984 808.422 175.903 815.087 180.758 817.84 180.849 817.892 180.934 817.912 181.025 817.961 181.536 818.233 182.044 818.479 182.531 818.642 182.731 818.708 182.914 818.717 183.109 818.766 183.472 818.857 183.841 818.966 184.183 818.995 184.4 819.015 184.593 818.971 184.802 818.967Z" fill="#6E7455" fill-rule="evenodd"/><path d="M204.61 814.683C206.459 813.613 209.019 813.764 211.849 815.391 217.485 818.632 222.019 826.479 222 832.93 221.991 836.125 220.858 838.379 219.028 839.438L209.419 845C211.248 843.941 212.381 841.688 212.391 838.493 212.409 832.041 207.876 824.196 202.24 820.955 199.41 819.326 196.849 819.176 195 820.247L204.61 814.683Z" fill="#424633" fill-rule="evenodd"/><path d="M202.032 820.385C196.498 817.159 192.018 819.762 192 826.183 191.982 832.579 196.433 840.387 201.968 843.614 207.502 846.84 211.982 844.238 212 837.842 212.017 831.42 207.566 823.611 202.032 820.385Z" fill="#5B6047" fill-rule="evenodd"/><path d="M210.904 841.368C210.946 841.25 210.958 841.116 211 841 210.644 841.3 210.37 841.733 210 842L210.904 841.368Z" fill="#4F533D" fill-rule="evenodd"/><path d="M210.985 837.037C210.978 836.431 210.931 835.814 210.836 835.187 210.748 834.611 210.604 834.03 210.448 833.447 209.591 830.239 207.762 827.033 205.429 824.653 204.976 824.19 204.512 823.745 204.025 823.353 203.494 822.924 202.946 822.543 202.385 822.214 202.367 822.203 202.348 822.186 202.33 822.176 200.44 821.085 198.701 820.789 197.271 821.14 196.484 822.152 196.006 823.584 196 825.428 195.985 830.749 199.725 837.231 204.353 839.903 206.78 841.305 208.914 841.291 210.447 840.273 210.781 839.407 210.997 838.404 211 837.216 211 837.158 210.986 837.096 210.985 837.037Z" fill="#4F533D" fill-rule="evenodd"/><path d="M205.802 843.964C206.098 843.957 206.404 843.975 206.677 843.918 206.875 843.877 207.043 843.775 207.229 843.708 207.484 843.618 207.751 843.552 207.982 843.417 208.838 842.911 209.499 842.07 209.945 840.976L209.869 841.021C209.9 841.002 209.923 840.971 209.953 840.95 209.971 840.904 209.982 840.848 210 840.801 208.455 841.855 206.302 841.869 203.854 840.418 199.187 837.651 195.415 830.943 195.43 825.438 195.436 823.529 195.919 822.048 196.712 821 196.043 821.167 195.461 821.506 194.949 821.96 194.803 822.089 194.637 822.184 194.508 822.335 194.308 822.565 194.157 822.862 193.994 823.143 193.899 823.305 193.779 823.435 193.698 823.612 193.541 823.955 193.441 824.363 193.336 824.765 193.291 824.934 193.219 825.073 193.183 825.252 193.066 825.856 193.002 826.517 193 827.23 192.984 832.942 196.902 839.909 201.757 842.787 201.849 842.842 201.934 842.863 202.024 842.914 202.536 843.199 203.044 843.456 203.53 843.625 203.729 843.695 203.913 843.705 204.108 843.756 204.471 843.852 204.84 843.964 205.182 843.995 205.399 844.014 205.593 843.969 205.802 843.964Z" fill="#6E7455" fill-rule="evenodd"/><path d="M226.254 826.683C228.034 825.613 230.5 825.764 233.225 827.392 238.653 830.633 243.018 838.48 243 844.931 242.991 848.126 241.9 850.379 240.138 851.438L230.885 857C232.646 855.942 233.738 853.688 233.747 850.493 233.764 844.042 229.399 836.196 223.972 832.955 221.246 831.327 218.781 831.177 217 832.248L226.254 826.683Z" fill="#424633" fill-rule="evenodd"/><path d="M224.032 833.385C218.498 830.159 214.018 832.761 214 839.183 213.982 845.579 218.433 853.388 223.968 856.614 229.502 859.84 233.982 857.238 234 850.842 234.017 844.42 229.566 836.612 224.032 833.385Z" fill="#5B6047" fill-rule="evenodd"/><path d="M232.904 853.367C232.946 853.249 232.958 853.116 233 853 232.644 853.299 232.37 853.733 232 854L232.904 853.367Z" fill="#4F533D" fill-rule="evenodd"/><path d="M231.985 850.037C231.978 849.431 231.931 848.813 231.836 848.187 231.748 847.611 231.604 847.03 231.448 846.447 230.591 843.24 228.762 840.033 226.429 837.653 225.976 837.19 225.512 836.745 225.025 836.353 224.494 835.924 223.946 835.543 223.385 835.214 223.365 835.203 223.348 835.187 223.33 835.176 221.44 834.085 219.702 833.789 218.271 834.14 217.484 835.152 217.006 836.584 217 838.428 216.985 843.748 220.725 850.23 225.353 852.902 227.78 854.304 229.914 854.291 231.447 853.272 231.781 852.407 231.997 851.404 232 850.215 232 850.158 231.986 850.095 231.985 850.037Z" fill="#4F533D" fill-rule="evenodd"/><path d="M227.803 855.966C228.099 855.959 228.405 855.976 228.679 855.922 228.876 855.882 229.045 855.785 229.23 855.721 229.484 855.635 229.752 855.571 229.982 855.442 230.839 854.958 231.499 854.154 231.945 853.108L231.869 853.151C231.9 853.133 231.923 853.103 231.953 853.083 231.971 853.038 231.982 852.985 232 852.94 230.455 853.948 228.302 853.96 225.855 852.574 221.188 849.927 217.416 843.511 217.431 838.245 217.437 836.42 217.92 835.002 218.713 834 218.044 834.16 217.462 834.484 216.95 834.918 216.804 835.042 216.638 835.133 216.508 835.277 216.308 835.497 216.157 835.781 215.994 836.05 215.899 836.205 215.779 836.329 215.698 836.499 215.541 836.827 215.441 837.217 215.336 837.601 215.291 837.763 215.219 837.896 215.183 838.067 215.066 838.645 215.002 839.277 215 839.96 214.984 845.422 218.902 852.087 223.757 854.84 223.848 854.892 223.932 854.913 224.024 854.961 224.535 855.234 225.043 855.48 225.529 855.642 225.729 855.709 225.912 855.718 226.107 855.766 226.47 855.858 226.839 855.966 227.181 855.995 227.401 856.014 227.595 855.971 227.803 855.966Z" fill="#6E7455" fill-rule="evenodd"/><path d="M247.609 839.684C249.458 838.613 252.019 838.764 254.849 840.391 260.485 843.632 265.018 851.479 265 857.93 264.991 861.126 263.858 863.379 262.028 864.438L252.419 870C254.249 868.94 255.381 866.688 255.39 863.493 255.409 857.042 250.876 849.196 245.24 845.955 242.41 844.326 239.849 844.176 238 845.247L247.609 839.684Z" fill="#424633" fill-rule="evenodd"/><path d="M245.534 845.386C239.723 842.159 235.019 844.761 235 851.183 234.981 857.579 239.655 865.388 245.466 868.614 251.277 871.84 255.981 869.238 256 862.842 256.019 856.42 251.346 848.611 245.534 845.386Z" fill="#5B6047" fill-rule="evenodd"/><path d="M253.905 866.367C253.946 866.249 253.959 866.116 254 866 253.644 866.3 253.371 866.733 253 867L253.905 866.367Z" fill="#4F533D" fill-rule="evenodd"/><path d="M253.985 862.037C253.978 861.431 253.931 860.813 253.836 860.187 253.748 859.611 253.604 859.03 253.448 858.447 252.591 855.239 250.761 852.033 248.429 849.653 247.976 849.19 247.512 848.745 247.025 848.353 246.494 847.924 245.946 847.543 245.385 847.214 245.365 847.203 245.348 847.187 245.33 847.176 243.44 846.085 241.701 845.789 240.271 846.14 239.484 847.152 239.006 848.584 239 850.428 238.985 855.748 242.725 862.23 247.353 864.902 249.78 866.304 251.914 866.291 253.447 865.272 253.781 864.407 253.997 863.404 254 862.215 253.999 862.157 253.985 862.095 253.985 862.037Z" fill="#4F533D" fill-rule="evenodd"/><path d="M249.802 868.965C250.098 868.958 250.404 868.975 250.677 868.918 250.875 868.877 251.043 868.775 251.229 868.709 251.484 868.619 251.751 868.552 251.982 868.416 252.839 867.91 253.499 867.069 253.945 865.975L253.869 866.02C253.9 866.001 253.923 865.971 253.953 865.949 253.971 865.903 253.982 865.847 254 865.8 252.455 866.854 250.302 866.868 247.855 865.417 243.188 862.65 239.416 855.943 239.431 850.438 239.437 848.529 239.92 847.048 240.713 846 240.044 846.168 239.462 846.506 238.95 846.961 238.804 847.091 238.638 847.185 238.508 847.336 238.308 847.566 238.157 847.863 237.994 848.144 237.899 848.307 237.779 848.436 237.698 848.614 237.541 848.956 237.441 849.364 237.336 849.766 237.291 849.935 237.219 850.074 237.183 850.253 237.066 850.857 237.002 851.518 237 852.231 236.984 857.942 240.902 864.91 245.757 867.788 245.848 867.842 245.934 867.863 246.024 867.914 246.535 868.199 247.043 868.456 247.529 868.626 247.73 868.696 247.912 868.705 248.107 868.756 248.47 868.851 248.838 868.965 249.181 868.995 249.401 869.014 249.593 868.969 249.802 868.965Z" fill="#6E7455" fill-rule="evenodd"/><path d="M269.609 851.684C271.458 850.613 274.019 850.764 276.849 852.391 282.485 855.632 287.018 863.479 287 869.93 286.991 873.126 285.858 875.379 284.028 876.438L274.419 882C276.249 880.942 277.381 878.688 277.391 875.493 277.409 869.042 272.876 861.196 267.24 857.955 264.41 856.326 261.849 856.176 260 857.247L269.609 851.684Z" fill="#424633" fill-rule="evenodd"/><path d="M267.032 858.386C261.498 855.159 257.018 857.761 257 864.183 256.982 870.579 261.433 878.388 266.968 881.614 272.502 884.84 276.982 882.238 277 875.842 277.018 869.42 272.567 861.612 267.032 858.386Z" fill="#5B6047" fill-rule="evenodd"/><path d="M275.904 878.367C275.946 878.249 275.958 878.116 276 878 275.644 878.3 275.37 878.733 275 879L275.904 878.367Z" fill="#4F533D" fill-rule="evenodd"/><path d="M275.985 875.038C275.978 874.432 275.931 873.815 275.836 873.188 275.748 872.612 275.604 872.031 275.448 871.448 274.591 868.24 272.762 865.034 270.429 862.654 269.976 862.191 269.512 861.747 269.025 861.354 268.494 860.925 267.946 860.544 267.385 860.215 267.365 860.204 267.348 860.188 267.33 860.176 265.44 859.085 263.701 858.789 262.271 859.14 261.484 860.152 261.006 861.585 261 863.428 260.985 868.749 264.725 875.23 269.353 877.903 271.78 879.305 273.914 879.291 275.447 878.272 275.781 877.407 275.997 876.404 276 875.216 275.999 875.159 275.985 875.097 275.985 875.038Z" fill="#4F533D" fill-rule="evenodd"/><path d="M270.802 880.965C271.098 880.959 271.404 880.976 271.677 880.921 271.875 880.881 272.043 880.784 272.229 880.72 272.483 880.634 272.751 880.571 272.982 880.442 273.839 879.957 274.499 879.154 274.945 878.107L274.868 878.15C274.9 878.132 274.923 878.103 274.953 878.082 274.971 878.038 274.982 877.985 275 877.939 273.455 878.947 271.302 878.961 268.854 877.573 264.188 874.928 260.415 868.511 260.431 863.245 260.436 861.42 260.919 860.002 261.712 859 261.044 859.161 260.462 859.484 259.95 859.92 259.805 860.043 259.639 860.134 259.508 860.278 259.308 860.498 259.157 860.782 258.994 861.051 258.9 861.207 258.78 861.33 258.699 861.5 258.542 861.828 258.441 862.218 258.336 862.602 258.291 862.764 258.22 862.897 258.184 863.068 258.066 863.646 258.003 864.278 258 864.96 257.984 870.423 261.903 877.088 266.758 879.841 266.849 879.893 266.934 879.913 267.024 879.962 267.536 880.234 268.044 880.48 268.53 880.642 268.73 880.709 268.913 880.718 269.108 880.767 269.471 880.858 269.839 880.967 270.182 880.996 270.4 881.013 270.593 880.971 270.802 880.965Z" fill="#6E7455" fill-rule="evenodd"/><path d="M293.118 863.529C294.487 862.7 296.384 862.818 298.481 864.078 302.656 866.587 306.014 872.662 306 877.656 305.993 880.129 305.154 881.874 303.798 882.694L296.681 887C298.036 886.18 298.876 884.435 298.882 881.962 298.896 876.967 295.538 870.893 291.363 868.384 289.267 867.123 287.37 867.006 286 867.835L293.118 863.529Z" fill="#424633" fill-rule="evenodd"/><path d="M291.026 868.119C286.599 865.513 283.015 867.615 283 872.802 282.986 877.968 286.546 884.275 290.974 886.881 295.401 889.486 298.985 887.384 299 882.218 299.014 877.033 295.453 870.726 291.026 868.119Z" fill="#5B6047" fill-rule="evenodd"/><path d="M297.913 884.371C297.948 884.26 297.964 884.109 298.002 884 297.643 884.306 297.375 884.74 297 885L297.913 884.371Z" fill="#4F533D" fill-rule="evenodd"/><path d="M297.988 881.026C297.982 880.572 297.945 880.108 297.868 879.639 297.798 879.208 297.683 878.771 297.558 878.334 296.872 875.929 295.409 873.523 293.543 871.739 293.181 871.393 292.81 871.059 292.421 870.764 291.995 870.444 291.557 870.157 291.108 869.911 291.092 869.903 291.078 869.891 291.064 869.882 289.552 869.063 288.161 868.843 287.017 869.104 286.387 869.864 286.005 870.938 286 872.321 285.988 876.311 288.98 881.172 292.682 883.177 294.623 884.229 296.331 884.218 297.557 883.454 297.825 882.805 297.997 882.052 298 881.161 297.999 881.117 297.988 881.07 297.988 881.026Z" fill="#4F533D" fill-rule="evenodd"/><path d="M293.792 885.973C294.017 885.967 294.251 885.981 294.461 885.939 294.612 885.908 294.741 885.833 294.883 885.784 295.077 885.717 295.282 885.669 295.458 885.568 296.112 885.194 296.618 884.573 296.959 883.765L296.9 883.798C296.924 883.784 296.942 883.761 296.965 883.746 296.979 883.711 296.987 883.671 297 883.634 295.818 884.413 294.173 884.423 292.301 883.351 288.733 881.307 285.848 876.349 285.86 872.28 285.864 870.87 286.233 869.775 286.84 869 286.329 869.124 285.884 869.374 285.492 869.71 285.381 869.806 285.254 869.875 285.154 869.986 285.002 870.157 284.886 870.376 284.761 870.584 284.689 870.704 284.598 870.799 284.535 870.932 284.415 871.185 284.338 871.486 284.258 871.783 284.223 871.908 284.168 872.01 284.141 872.143 284.05 872.59 284.002 873.077 284 873.605 283.987 877.827 286.984 882.976 290.696 885.103 290.766 885.143 290.831 885.159 290.9 885.197 291.292 885.407 291.68 885.597 292.051 885.723 292.204 885.775 292.344 885.782 292.493 885.819 292.77 885.89 293.052 885.974 293.314 885.997 293.485 886.01 293.632 885.977 293.792 885.973Z" fill="#6E7455" fill-rule="evenodd"/><path d="M319.032 868.829C313.355 862.123 303.796 858.232 296.547 853.879 261.729 832.968 226.942 811.999 192.11 791.115 188.526 788.967 184.38 786.132 180.194 786.004 176.116 785.88 170.353 788.557 168 792.147 173.615 796.856 181.021 800.124 187.256 803.87 188.527 803.838 191.275 806.286 192.426 806.977 229.33 829.153 266.222 851.353 303.13 873.525 306.588 875.601 310.171 877.799 312.413 881.316 313.912 883.667 314.409 886.257 314.791 889 318.358 887.672 322.266 883.334 322.896 879.197 323.357 876.173 322.33 872.725 319.032 868.829Z" fill="#1A1C1E" fill-rule="evenodd"/><path d="M246.299 921.657 308 885 302.702 896.344 241 933Z" fill="#424633" fill-rule="evenodd"/><path d="M238 900.836 299.565 864 308 885.163 246.436 922Z" fill="#8C9171" fill-rule="evenodd"/><path d="M106 824.768 167.523 788 299 864.232 237.476 901Z" fill="#6E7455" fill-rule="evenodd"/><path d="M246 921.698 237.607 900.715 106.709 825 93.9998 836.265 97.4755 844.561 240.74 933Z" fill="#4F533D" fill-rule="evenodd"/><path d="M250.895 923.265C251.359 920.239 250.325 916.788 247.002 912.89 241.282 906.179 231.652 902.285 224.349 897.928 189.273 877.003 154.227 856.019 119.137 835.12 115.526 832.969 111.349 830.134 107.133 830.005 102.496 829.864 98.1712 832.881 94.7758 835.927 91.9294 838.481 90.3705 842.17 91.2411 846.177 91.7288 848.422 92.7859 850.474 93.8535 852.478 98.0456 860.349 102.609 868.01 107.299 875.551 108.293 877.149 109.312 878.76 110.662 880.024 111.823 881.111 113.191 881.907 114.547 882.693 116.512 884.691 120.208 885.976 122.604 887.366 125.673 889.146 128.742 890.925 131.812 892.705 146.841 901.421 161.806 910.263 176.77 919.109 184.254 923.534 191.737 927.96 199.229 932.371 204.473 935.46 211.907 941.871 218.012 941.998 219.836 942.036 221.611 941.447 223.35 940.863 227.893 939.338 232.593 938.265 236.999 936.301 243.416 933.442 249.992 929.156 250.895 923.265Z" fill="#1A1C1E" fill-rule="evenodd"/><path d="M110.608 833.683C112.457 832.613 115.018 832.763 117.848 834.392 123.484 837.633 128.017 845.48 128 851.93 127.991 855.126 126.858 857.379 125.028 858.438L115.419 864C117.248 862.941 118.381 860.688 118.391 857.493 118.409 851.042 113.876 843.196 108.24 839.955 105.409 838.327 102.849 838.177 101 839.248L110.608 833.683Z" fill="#424633" fill-rule="evenodd"/><path d="M108.032 840.386C102.498 837.159 98.0181 839.761 98 846.183 97.9819 852.579 102.433 860.388 107.968 863.614 113.502 866.84 117.982 864.238 118 857.842 118.017 851.42 113.566 843.612 108.032 840.386Z" fill="#5B6047" fill-rule="evenodd"/><path d="M116.904 860.368C116.946 860.249 116.958 860.116 117 860 116.644 860.3 116.37 860.733 116 861L116.904 860.368Z" fill="#4F533D" fill-rule="evenodd"/><path d="M116.985 857.037C116.978 856.431 116.931 855.814 116.836 855.187 116.749 854.611 116.604 854.03 116.448 853.447 115.59 850.239 113.761 847.033 111.429 844.653 110.976 844.19 110.512 843.746 110.026 843.353 109.494 842.924 108.946 842.543 108.385 842.214 108.365 842.203 108.348 842.187 108.33 842.177 106.44 841.085 104.702 840.789 103.271 841.14 102.484 842.152 102.006 843.584 102 845.428 101.985 850.749 105.726 857.23 110.353 859.903 112.78 861.305 114.914 861.291 116.447 860.273 116.781 859.407 116.997 858.404 117 857.216 117 857.158 116.986 857.096 116.985 857.037Z" fill="#4F533D" fill-rule="evenodd"/><path d="M111.802 862.966C112.097 862.959 112.403 862.976 112.677 862.922 112.874 862.882 113.043 862.784 113.229 862.721 113.484 862.635 113.751 862.571 113.982 862.442 114.838 861.958 115.499 861.154 115.945 860.107L115.868 860.151C115.9 860.132 115.923 860.103 115.953 860.083 115.971 860.038 115.981 859.985 116 859.94 114.455 860.948 112.302 860.961 109.854 859.573 105.187 856.928 101.414 850.511 101.429 845.245 101.435 843.42 101.918 842.003 102.711 841 102.043 841.16 101.461 841.484 100.949 841.919 100.805 842.042 100.637 842.133 100.508 842.277 100.308 842.497 100.157 842.781 99.9942 843.05 99.8995 843.206 99.7795 843.329 99.6985 843.499 99.5416 843.827 99.4411 844.217 99.3361 844.601 99.2911 844.763 99.2194 844.896 99.1837 845.067 99.0659 845.645 99.0024 846.277 99 846.96 98.9839 852.422 102.903 859.087 107.758 861.84 107.849 861.892 107.934 861.912 108.025 861.961 108.536 862.233 109.044 862.479 109.53 862.642 109.731 862.709 109.914 862.718 110.109 862.766 110.471 862.857 110.841 862.966 111.183 862.995 111.399 863.015 111.593 862.972 111.802 862.966Z" fill="#6E7455" fill-rule="evenodd"/><path d="M131.61 858.683C133.459 857.613 136.02 857.764 138.85 859.391 144.486 862.632 149.018 870.479 149 876.93 148.991 880.125 147.858 882.379 146.028 883.438L136.419 889C138.249 887.942 139.382 885.688 139.391 882.493 139.409 876.042 134.877 868.196 129.24 864.955 126.408 863.326 123.849 863.176 122 864.247L131.61 858.683Z" fill="#424633" fill-rule="evenodd"/><path d="M129.534 864.439C123.723 861.088 119.019 863.791 119 870.46 118.981 877.101 123.654 885.21 129.466 888.561 135.277 891.911 139.981 889.208 140 882.567 140.019 875.898 135.346 867.789 129.534 864.439Z" fill="#5B6047" fill-rule="evenodd"/><path d="M138.904 885.368C138.946 885.25 138.958 885.116 139 885 138.644 885.3 138.37 885.733 138 886L138.904 885.368Z" fill="#4F533D" fill-rule="evenodd"/><path d="M137.985 881.037C137.978 880.431 137.931 879.813 137.836 879.187 137.748 878.611 137.604 878.03 137.448 877.447 136.591 874.24 134.762 871.033 132.429 868.653 131.976 868.19 131.512 867.745 131.026 867.352 130.494 866.924 129.946 866.543 129.385 866.214 129.365 866.203 129.348 866.186 129.33 866.176 127.44 865.085 125.702 864.789 124.271 865.14 123.484 866.152 123.006 867.584 123 869.428 122.985 874.749 126.725 881.23 131.353 883.903 133.78 885.305 135.914 885.291 137.447 884.273 137.781 883.407 137.997 882.404 138 881.216 137.999 881.158 137.985 881.096 137.985 881.037Z" fill="#4F533D" fill-rule="evenodd"/><path d="M133.802 887.966C134.098 887.959 134.403 887.976 134.677 887.921 134.874 887.882 135.043 887.784 135.229 887.721 135.484 887.634 135.751 887.571 135.982 887.442 136.838 886.958 137.499 886.154 137.944 885.107L137.868 885.15C137.899 885.132 137.923 885.103 137.953 885.082 137.971 885.038 137.981 884.985 138 884.939 136.455 885.947 134.302 885.96 131.854 884.573 127.187 881.927 123.415 875.51 123.43 870.245 123.436 868.419 123.919 867.002 124.712 866 124.044 866.16 123.462 866.484 122.949 866.918 122.804 867.042 122.637 867.133 122.508 867.277 122.308 867.496 122.157 867.781 121.994 868.05 121.899 868.205 121.779 868.329 121.698 868.499 121.542 868.827 121.441 869.217 121.336 869.601 121.291 869.763 121.219 869.896 121.184 870.067 121.066 870.645 121.002 871.277 121 871.959 120.984 877.422 124.902 884.087 129.757 886.84 129.849 886.892 129.933 886.912 130.024 886.961 130.536 887.233 131.044 887.479 131.53 887.641 131.731 887.708 131.913 887.717 132.108 887.766 132.471 887.857 132.84 887.966 133.182 887.995 133.4 888.014 133.593 887.971 133.802 887.966Z" fill="#6E7455" fill-rule="evenodd"/><path d="M153.609 870.684C155.458 869.613 158.019 869.764 160.849 871.391 166.485 874.632 171.018 882.479 171 888.93 170.991 892.125 169.858 894.379 168.028 895.438L158.419 901C160.248 899.94 161.381 897.688 161.391 894.493 161.409 888.041 156.876 880.196 151.24 876.955 148.41 875.326 145.849 875.176 144 876.247L153.609 870.684Z" fill="#424633" fill-rule="evenodd"/><path d="M151.032 877.385C145.498 874.159 141.018 876.761 141 883.183 140.982 889.579 145.433 897.388 150.968 900.614 156.502 903.84 160.982 901.238 161 894.842 161.017 888.42 156.566 880.611 151.032 877.385Z" fill="#5B6047" fill-rule="evenodd"/><path d="M159.905 897.365C159.946 897.249 159.958 897.116 160 897 159.644 897.299 159.371 897.733 159 898L159.905 897.365Z" fill="#4F533D" fill-rule="evenodd"/><path d="M159.985 894.037C159.978 893.431 159.931 892.813 159.836 892.187 159.748 891.611 159.604 891.03 159.448 890.447 158.591 887.239 156.762 884.033 154.429 881.653 153.976 881.19 153.512 880.745 153.026 880.353 152.494 879.924 151.946 879.543 151.385 879.214 151.367 879.203 151.348 879.187 151.33 879.176 149.44 878.085 147.702 877.789 146.271 878.14 145.484 879.152 145.006 880.584 145 882.428 144.985 887.748 148.725 894.23 153.353 896.902 155.78 898.304 157.914 898.291 159.447 897.272 159.781 896.407 159.997 895.404 160 894.215 159.999 894.157 159.985 894.095 159.985 894.037Z" fill="#4F533D" fill-rule="evenodd"/><path d="M154.803 899.967C155.098 899.96 155.404 899.977 155.678 899.923 155.875 899.883 156.044 899.785 156.229 899.722 156.485 899.636 156.751 899.572 156.982 899.443 157.839 898.959 158.499 898.155 158.945 897.108L158.869 897.152C158.9 897.133 158.923 897.104 158.953 897.083 158.971 897.039 158.982 896.986 159 896.94 157.456 897.947 155.302 897.961 152.855 896.573 148.188 893.927 144.416 887.511 144.431 882.245 144.437 880.419 144.92 879.002 145.713 878 145.044 878.16 144.463 878.484 143.95 878.919 143.804 879.043 143.638 879.134 143.508 879.277 143.308 879.497 143.157 879.781 142.994 880.05 142.899 880.205 142.779 880.329 142.698 880.499 142.541 880.827 142.441 881.217 142.336 881.601 142.291 881.763 142.219 881.896 142.184 882.067 142.066 882.645 142.002 883.277 142 883.959 141.984 889.422 145.902 896.087 150.757 898.84 150.848 898.892 150.932 898.912 151.024 898.961 151.535 899.233 152.043 899.479 152.529 899.641 152.73 899.708 152.913 899.717 153.108 899.766 153.47 899.857 153.84 899.966 154.181 899.995 154.401 900.014 154.593 899.971 154.803 899.967Z" fill="#6E7455" fill-rule="evenodd"/><path d="M175.254 883.684C177.034 882.613 179.5 882.764 182.225 884.391 187.653 887.632 192.018 895.479 192 901.93 191.991 905.126 190.9 907.379 189.139 908.438L179.885 914C181.647 912.942 182.738 910.688 182.746 907.493 182.764 901.042 178.399 893.196 172.972 889.955 170.246 888.326 167.781 888.176 166 889.247L175.254 883.684Z" fill="#424633" fill-rule="evenodd"/><path d="M173.032 889.439C167.498 886.088 163.018 888.79 163 895.459 162.982 902.101 167.433 910.21 172.968 913.561 178.502 916.911 182.982 914.208 183 907.567 183.017 900.898 178.566 892.789 173.032 889.439Z" fill="#5B6047" fill-rule="evenodd"/><path d="M181.905 910.367C181.946 910.249 181.958 910.116 182 910 181.644 910.3 181.371 910.733 181 911L181.905 910.367Z" fill="#4F533D" fill-rule="evenodd"/><path d="M180.985 906.038C180.979 905.432 180.932 904.814 180.837 904.188 180.748 903.612 180.604 903.031 180.448 902.448 179.591 899.24 177.763 896.034 175.429 893.654 174.976 893.191 174.512 892.747 174.026 892.354 173.494 891.925 172.946 891.544 172.385 891.215 172.366 891.204 172.348 891.188 172.33 891.176 170.44 890.085 168.702 889.789 167.271 890.14 166.484 891.152 166.006 892.585 166 894.428 165.985 899.748 169.726 906.23 174.353 908.902 176.78 910.304 178.914 910.291 180.447 909.272 180.782 908.407 180.997 907.404 181 906.215 181 906.158 180.986 906.096 180.985 906.038Z" fill="#4F533D" fill-rule="evenodd"/><path d="M176.802 912.965C177.098 912.959 177.404 912.976 177.677 912.921 177.875 912.882 178.043 912.784 178.229 912.721 178.484 912.634 178.751 912.571 178.982 912.442 179.839 911.958 180.499 911.154 180.945 910.107L180.869 910.15C180.9 910.132 180.923 910.103 180.953 910.082 180.971 910.038 180.982 909.985 181 909.939 179.455 910.947 177.302 910.961 174.854 909.573 170.187 906.927 166.415 900.511 166.43 895.245 166.436 893.42 166.919 892.002 167.712 891 167.044 891.16 166.462 891.484 165.949 891.92 165.804 892.043 165.637 892.134 165.508 892.278 165.308 892.498 165.157 892.782 164.994 893.051 164.899 893.206 164.779 893.33 164.698 893.5 164.542 893.828 164.441 894.218 164.336 894.602 164.291 894.764 164.219 894.897 164.184 895.068 164.066 895.646 164.002 896.278 164 896.96 163.984 902.423 167.903 909.088 172.758 911.841 172.849 911.893 172.934 911.913 173.024 911.962 173.536 912.234 174.044 912.48 174.53 912.642 174.731 912.709 174.913 912.718 175.108 912.767 175.471 912.858 175.839 912.967 176.182 912.996 176.4 913.013 176.594 912.97 176.802 912.965Z" fill="#6E7455" fill-rule="evenodd"/><path d="M196.61 895.684C198.459 894.613 201.019 894.764 203.849 896.391 209.486 899.632 214.019 907.479 214 913.93 213.991 917.125 212.858 919.379 211.028 920.438L201.419 926C203.25 924.942 204.382 922.688 204.391 919.493 204.409 913.042 199.876 905.196 194.24 901.955 191.41 900.326 188.849 900.176 187 901.247L196.61 895.684Z" fill="#424633" fill-rule="evenodd"/><path d="M194.534 902.385C188.723 899.159 184.019 901.762 184 908.183 183.981 914.579 188.654 922.387 194.466 925.615 200.277 928.84 204.981 926.238 205 919.842 205.018 913.421 200.344 905.612 194.534 902.385Z" fill="#5B6047" fill-rule="evenodd"/><path d="M202.905 922.367C202.946 922.249 202.959 922.116 203 922 202.644 922.3 202.371 922.733 202 923L202.905 922.367Z" fill="#4F533D" fill-rule="evenodd"/><path d="M202.985 919.037C202.979 918.431 202.932 917.814 202.837 917.187 202.748 916.611 202.604 916.03 202.448 915.447 201.591 912.239 199.763 909.033 197.429 906.653 196.976 906.19 196.512 905.746 196.026 905.353 195.494 904.924 194.946 904.543 194.385 904.214 194.366 904.203 194.348 904.187 194.33 904.176 192.44 903.085 190.702 902.789 189.271 903.14 188.484 904.152 188.006 905.584 188 907.428 187.985 912.749 191.726 919.23 196.353 921.903 198.78 923.305 200.914 923.291 202.447 922.272 202.782 921.407 202.997 920.404 203 919.216 203 919.158 202.986 919.096 202.985 919.037Z" fill="#4F533D" fill-rule="evenodd"/><path d="M198.802 924.967C199.098 924.96 199.404 924.977 199.677 924.923 199.875 924.883 200.043 924.785 200.229 924.722 200.484 924.636 200.751 924.572 200.982 924.443 201.839 923.959 202.499 923.155 202.945 922.108L202.869 922.151C202.9 922.133 202.923 922.104 202.953 922.083 202.971 922.039 202.982 921.986 203 921.94 201.455 922.947 199.302 922.961 196.854 921.573 192.187 918.927 188.415 912.511 188.43 907.245 188.436 905.42 188.919 904.002 189.712 903 189.044 903.16 188.462 903.484 187.949 903.918 187.804 904.042 187.637 904.133 187.508 904.277 187.308 904.497 187.157 904.781 186.994 905.05 186.899 905.205 186.779 905.329 186.698 905.499 186.542 905.827 186.441 906.217 186.336 906.601 186.291 906.763 186.219 906.896 186.184 907.067 186.066 907.645 186.002 908.277 186 908.959 185.984 914.422 189.903 921.087 194.758 923.84 194.849 923.892 194.934 923.912 195.024 923.961 195.536 924.233 196.044 924.479 196.53 924.641 196.731 924.708 196.913 924.717 197.108 924.766 197.471 924.857 197.839 924.966 198.182 924.995 198.4 925.014 198.594 924.972 198.802 924.967Z" fill="#6E7455" fill-rule="evenodd"/><path d="M220.474 907.529C221.912 906.7 223.904 906.818 226.105 908.078 230.489 910.587 234.015 916.662 234 921.656 233.993 924.129 233.112 925.874 231.689 926.694L224.215 931C225.638 930.18 226.52 928.435 226.527 925.962 226.54 920.967 223.015 914.893 218.631 912.384 216.43 911.123 214.438 911.006 213 911.835L220.474 907.529Z" fill="#424633" fill-rule="evenodd"/><path d="M218.524 913.065C214.374 910.584 211.013 912.586 211 917.525 210.987 922.446 214.324 928.452 218.476 930.934 222.626 933.416 225.986 931.413 226 926.493 226.012 921.555 222.674 915.547 218.524 913.065Z" fill="#5B6047" fill-rule="evenodd"/><path d="M225.894 928.371C225.929 928.26 225.948 928.109 226.002 928 225.643 928.306 225.357 928.74 225 929.003L225.894 928.371Z" fill="#4F533D" fill-rule="evenodd"/><path d="M224.989 925.829C224.984 925.344 224.95 924.85 224.879 924.35 224.815 923.888 224.71 923.424 224.595 922.958 223.966 920.392 222.625 917.826 220.915 915.922 220.583 915.552 220.243 915.196 219.886 914.882 219.497 914.54 219.094 914.234 218.682 913.972 218.668 913.963 218.655 913.951 218.642 913.941 217.256 913.067 215.981 912.832 214.932 913.111 214.355 913.922 214.005 915.068 214 916.542 213.989 920.798 216.732 925.984 220.125 928.122 221.905 929.244 223.47 929.233 224.594 928.418 224.84 927.725 224.997 926.923 225 925.972 225 925.926 224.989 925.876 224.989 925.829Z" fill="#4F533D" fill-rule="evenodd"/><path d="M221.792 929.972C222.017 929.966 222.252 929.98 222.462 929.938 222.613 929.907 222.741 929.832 222.883 929.783 223.078 929.716 223.281 929.668 223.458 929.568 224.113 929.194 224.618 928.572 224.959 927.764L224.901 927.798C224.925 927.785 224.942 927.761 224.965 927.746 224.98 927.712 224.988 927.671 225 927.635 223.818 928.413 222.173 928.423 220.301 927.352 216.733 925.307 213.848 920.35 213.86 916.281 213.863 914.87 214.233 913.775 214.84 913 214.329 913.124 213.884 913.374 213.492 913.71 213.381 913.806 213.254 913.875 213.154 913.986 213.002 914.157 212.886 914.376 212.762 914.584 212.689 914.704 212.598 914.799 212.535 914.932 212.415 915.185 212.338 915.486 212.258 915.783 212.223 915.908 212.168 916.01 212.141 916.143 212.05 916.59 212.002 917.077 212 917.606 211.987 921.827 214.984 926.977 218.697 929.104 218.766 929.144 218.832 929.16 218.9 929.197 219.292 929.407 219.68 929.597 220.051 929.723 220.205 929.776 220.344 929.782 220.493 929.82 220.77 929.89 221.052 929.974 221.314 929.997 221.484 930.01 221.631 929.977 221.792 929.972Z" fill="#6E7455" fill-rule="evenodd"/><path d="M247.006 912.829C241.292 906.123 231.671 902.232 224.376 897.879 189.334 876.968 154.322 855.999 119.266 835.115 115.658 832.967 111.485 830.133 107.272 830.004 103.168 829.88 97.368 832.557 94.9999 836.147 100.652 840.856 108.105 844.124 114.38 847.87 115.66 847.838 118.425 850.286 119.584 850.977 156.725 873.154 193.856 895.353 231.001 917.525 234.482 919.601 238.088 921.799 240.344 925.316 241.853 927.667 242.353 930.257 242.738 933 246.328 931.672 250.261 927.334 250.895 923.197 251.359 920.173 250.326 916.725 247.006 912.829Z" fill="#1A1C1E" fill-rule="evenodd"/><path d="M286.794 882 296 876.997 295.153 875 286 880.071Z" fill="#323436" fill-rule="evenodd"/><path d="M259.888 834 266 852.757 256.461 870 252 845.08Z" fill="#5B6047" fill-rule="evenodd"/><path d="M251.507 845 256 870.199 241.605 879 238 853.258Z" fill="#4F533D" fill-rule="evenodd"/><path d="M237.266 853 241 878.449 216.716 884 211 859.456Z" fill="#5B6047" fill-rule="evenodd"/><path d="M211.339 859.739 217 884 161.082 856.364 128 827.185 133.669 817 173.195 825.046Z" fill="#4F533D" fill-rule="evenodd"/><path d="M133 817.223 178.223 795 210.388 802.773 260 834.577 251.764 845.536 237.763 853.612 211.478 860 162.815 828.74Z" fill="#6E7455" fill-rule="evenodd"/><path d="M177.997 795 133 817.395 162.666 829 210 802.833Z" fill="#8C9171" fill-rule="evenodd"/><path d="M250 848C250 848 253.417 850.291 254.641 859.08 255.864 867.868 253.574 871 253.574 871L250 848Z" fill="#424633" fill-rule="evenodd"/><path d="M240 853.18 250.308 848 253.776 859.41 254 870.82 243.692 876 243.15 863.82Z" fill="#424633" fill-rule="evenodd"/><path d="M240 853C240 853 243.417 855.291 244.641 864.079 245.864 872.868 243.574 876 243.574 876L240 853Z" fill="#424633" fill-rule="evenodd"/><path d="M249.247 866.6C248.535 863.95 249.415 860.189 251.212 858.201 253.009 856.212 255.041 856.749 255.753 859.4 256.465 862.05 255.585 865.811 253.788 867.799 251.991 869.788 249.958 869.251 249.247 866.6Z" fill="#424633" fill-rule="evenodd"/><path d="M251.19 869 247.212 867.981C246.348 867.775 245.627 866.972 245.255 865.628 244.52 862.97 245.429 859.198 247.286 857.204 248.203 856.219 249.18 855.852 250.022 856.053L254 857.072C253.158 856.872 252.181 857.238 251.264 858.223 249.407 860.217 248.499 863.989 249.233 866.647 249.606 867.993 250.328 868.795 251.19 869Z" fill="#6E7455" fill-rule="evenodd"/><path d="M254.387 858.101C253.92 857.893 253.392 858 252.866 858.481 251.545 859.686 250.742 862.796 251.075 865.43 251.276 867.013 251.844 868.06 252.554 868.377L352.167 912 354 901.724 254.387 858.101Z" fill="#5B6047" fill-rule="evenodd"/><path d="M355.894 904.21C355.422 901.444 353.52 900.234 351.641 901.505 349.771 902.769 348.634 906.034 349.107 908.8 349.577 911.554 351.479 912.763 353.349 911.498 355.228 910.227 356.365 906.963 355.894 904.21Z" fill="#4F533D" fill-rule="evenodd"/><path d="M353.924 905.043C353.586 903.283 352.228 902.513 350.887 903.321 349.55 904.126 348.739 906.203 349.076 907.963 349.412 909.716 350.77 910.486 352.106 909.68 353.449 908.873 354.261 906.796 353.924 905.043Z" fill="#1A1C1E" fill-rule="evenodd"/><path d="M168.569 808.01 168.569 808.01C168.064 807.758 168.032 807.334 168.498 807.063L175.186 803.214C175.652 802.943 176.439 802.927 176.944 803.179L176.944 803.179C177.449 803.431 177.481 803.854 177.015 804.126L170.327 807.974C169.862 808.245 169.074 808.261 168.569 808.01ZM174.155 809.881 180.844 806.033C181.31 805.762 181.278 805.338 180.773 805.086L180.773 805.086C180.267 804.834 179.48 804.85 179.013 805.121L172.326 808.97C171.859 809.241 171.891 809.665 172.396 809.917L172.396 809.917C172.902 810.169 173.688 810.154 174.155 809.881ZM177.982 811.79 184.67 807.941C185.136 807.67 185.104 807.246 184.599 806.994L184.599 806.994C184.094 806.743 183.307 806.759 182.841 807.03L176.152 810.878C175.685 811.149 175.717 811.573 176.223 811.825L176.223 811.825C176.728 812.076 177.516 812.061 177.982 811.79ZM157.401 814.007 157.401 814.007C156.896 813.755 156.864 813.331 157.33 813.06L164.018 809.211C164.484 808.94 165.272 808.924 165.777 809.176L165.777 809.176C166.283 809.428 166.313 809.852 165.847 810.123L159.159 813.972C158.693 814.243 157.906 814.259 157.401 814.007ZM162.987 815.879 169.674 812.03C170.141 811.759 170.109 811.335 169.604 811.083L169.604 811.083C169.098 810.832 168.312 810.848 167.845 811.119L161.158 814.967C160.691 815.238 160.723 815.662 161.228 815.914L161.228 815.914C161.733 816.166 162.52 816.15 162.987 815.879ZM166.813 817.786 173.501 813.937C173.967 813.666 173.935 813.242 173.43 812.991L173.43 812.991C172.925 812.739 172.138 812.755 171.672 813.026L164.983 816.875C164.516 817.146 164.548 817.57 165.054 817.821L165.054 817.821C165.56 818.073 166.347 818.057 166.813 817.786Z" fill="#424633" fill-rule="evenodd"/><path d="M215.548 833.8C213.64 837.454 206.258 839.622 199.054 838.643 196.683 838.32 194.624 837.696 193 836.875 190.479 835.6 189.001 833.846 189.007 832L189 834.122C188.994 835.968 190.472 837.721 192.993 838.997 194.616 839.818 196.674 840.441 199.046 840.765 206.25 841.745 213.632 839.576 215.54 835.923 215.845 835.339 215.992 834.752 215.993 834.174L216 832.052C216 832.629 215.854 833.216 215.548 833.8Z" fill="#5B6047" fill-rule="evenodd"/><path d="M212.011 826.336C210.386 825.377 208.328 824.649 205.95 824.276 198.745 823.131 191.348 825.656 189.453 829.929 188.173 832.791 189.685 835.705 192.994 837.66 194.618 838.619 196.676 839.348 199.049 839.725 206.254 840.87 213.638 838.336 215.546 834.07 216.826 831.209 215.319 828.29 212.011 826.336Z" fill="#888E65" fill-rule="evenodd"/><path d="M189.462 828.586C189.156 828.423 189.002 828.212 189.003 828L189 828.547C189 828.758 189.153 828.971 189.459 829.133L192.997 831 193 830.454 189.462 828.586Z" fill="#5B6047" fill-rule="evenodd"/><path d="M203 824 202.997 824.677 193 831 193.003 830.323Z" fill="#5B6047" fill-rule="evenodd"/><path d="M203 824.343 193.111 830 189.472 827.932C188.846 827.575 188.842 827 189.465 826.643L197.127 822.26C197.75 821.904 198.735 821.917 199.36 822.274L203 824.343Z" fill="#888E65" fill-rule="evenodd"/><path d="M332 779.5C355.472 779.5 374.5 796.513 374.5 817.5" stroke="#EB4F42" stroke-width="20.625" stroke-miterlimit="8" fill="none" fill-rule="evenodd"/><path d="M41.9999 0C65.1959-1.06943e-14 83.9999 17.0132 83.9999 38" stroke="#4385F4" stroke-width="20.625" stroke-miterlimit="8" fill="none" fill-rule="evenodd" transform="matrix(-1 0 0 1 160.5 779.5)"/><path d="M42.5 0C65.972-5.41082e-15 84.9999 17.2371 84.9999 38.5" stroke="#31A750" stroke-width="20.625" stroke-miterlimit="8" fill="none" fill-rule="evenodd" transform="matrix(1 0 0 -1 289.5 948.5)"/><path d="M118.5 948.5C95.3042 948.5 76.5002 931.263 76.5002 910" stroke="#FBBC03" stroke-width="20.625" stroke-miterlimit="8" fill="none" fill-rule="evenodd"/></g></svg>